<svg width="557" height="136" viewBox="0 0 557 136" fill="none" xmlns="http://www.w3.org/2000/svg">
<path d="M2.35582 33V2.45454H21.5064V6.42188H6.96449V15.7287H20.5071V19.6811H6.96449V29.0327H21.6854V33H2.35582ZM44.4714 15.6839L40.4295 16.3999C40.2605 15.8828 39.992 15.3906 39.6241 14.9233C39.2662 14.456 38.7789 14.0732 38.1625 13.7749C37.546 13.4766 36.7754 13.3274 35.8507 13.3274C34.5879 13.3274 33.5339 13.6108 32.6887 14.1776C31.8436 14.7344 31.421 15.4553 31.421 16.3402C31.421 17.1058 31.7044 17.7223 32.2711 18.1896C32.8379 18.657 33.7527 19.0398 35.0154 19.3381L38.6547 20.1733C40.7626 20.6605 42.3336 21.4112 43.3677 22.4254C44.4018 23.4396 44.9189 24.7571 44.9189 26.3778C44.9189 27.75 44.5211 28.973 43.7257 30.0469C42.9402 31.1108 41.8414 31.946 40.4295 32.5526C39.0275 33.1591 37.4018 33.4624 35.5524 33.4624C32.987 33.4624 30.894 32.9155 29.2733 31.8217C27.6525 30.718 26.6582 29.152 26.2903 27.1236L30.6007 26.4673C30.8691 27.5909 31.421 28.4411 32.2562 29.0178C33.0914 29.5845 34.1802 29.8679 35.5226 29.8679C36.9842 29.8679 38.1525 29.5646 39.0275 28.9581C39.9025 28.3416 40.34 27.5909 40.34 26.706C40.34 25.9901 40.0716 25.3885 39.5346 24.9013C39.0076 24.4141 38.1973 24.0462 37.1035 23.7976L33.2257 22.9474C31.0879 22.4602 29.5069 21.6847 28.4828 20.6207C27.4686 19.5568 26.9615 18.2095 26.9615 16.5788C26.9615 15.2266 27.3393 14.0433 28.095 13.0291C28.8507 12.0149 29.8947 11.2244 31.2271 10.6577C32.5595 10.081 34.0858 9.79261 35.8059 9.79261C38.2818 9.79261 40.2306 10.3295 41.6525 11.4034C43.0744 12.4673 44.014 13.8942 44.4714 15.6839ZM60.516 10.0909V13.6705H48.0025V10.0909H60.516ZM51.3583 4.60227H55.8178V26.2734C55.8178 27.1385 55.9471 27.7898 56.2056 28.2273C56.4641 28.6548 56.7972 28.9482 57.2049 29.1072C57.6225 29.2564 58.0749 29.331 58.5621 29.331C58.9201 29.331 59.2333 29.3061 59.5018 29.2564C59.7702 29.2067 59.979 29.1669 60.1282 29.1371L60.9336 32.821C60.6751 32.9205 60.3072 33.0199 59.8299 33.1193C59.3526 33.2287 58.756 33.2884 58.0401 33.2983C56.8668 33.3182 55.7731 33.1094 54.7589 32.6719C53.7447 32.2344 52.9244 31.5582 52.2979 30.6435C51.6715 29.7287 51.3583 28.5803 51.3583 27.1982V4.60227ZM72.1159 33.5071C70.6642 33.5071 69.3517 33.2386 68.1784 32.7017C67.0051 32.1548 66.0755 31.3643 65.3894 30.3303C64.7132 29.2962 64.3752 28.0284 64.3752 26.527C64.3752 25.2344 64.6238 24.1705 65.1209 23.3352C65.6181 22.5 66.2892 21.8388 67.1344 21.3516C67.9796 20.8643 68.9242 20.4964 69.9682 20.2479C71.0123 19.9993 72.0762 19.8104 73.16 19.6811C74.5321 19.522 75.6458 19.3928 76.5009 19.2933C77.356 19.1839 77.9775 19.0099 78.3652 18.7713C78.753 18.5327 78.9469 18.1449 78.9469 17.608V17.5036C78.9469 16.201 78.579 15.1918 77.8432 14.4759C77.1174 13.7599 76.0336 13.402 74.5918 13.402C73.0904 13.402 71.9071 13.7351 71.0421 14.4013C70.187 15.0575 69.5953 15.7884 69.2672 16.5938L65.0762 15.6392C65.5733 14.2472 66.2992 13.1236 67.2537 12.2685C68.2182 11.4034 69.3269 10.777 70.5797 10.3892C71.8326 9.99148 73.15 9.79261 74.5321 9.79261C75.4469 9.79261 76.4164 9.90199 77.4405 10.1207C78.4746 10.3295 79.4391 10.7173 80.334 11.2841C81.2388 11.8509 81.9796 12.6612 82.5563 13.7152C83.133 14.7592 83.4213 16.1165 83.4213 17.7869V33H79.0662V29.8679H78.8873C78.5989 30.4446 78.1664 31.0114 77.5897 31.5682C77.013 32.125 76.2722 32.5874 75.3674 32.9553C74.4625 33.3232 73.3787 33.5071 72.1159 33.5071ZM73.0854 29.9276C74.3184 29.9276 75.3723 29.6839 76.2473 29.1967C77.1323 28.7095 77.8034 28.0732 78.2608 27.2876C78.7282 26.4922 78.9618 25.642 78.9618 24.7372V21.7841C78.8027 21.9432 78.4945 22.0923 78.0371 22.2315C77.5897 22.3608 77.0776 22.4751 76.5009 22.5746C75.9242 22.6641 75.3624 22.7486 74.8155 22.8281C74.2686 22.8977 73.8113 22.9574 73.4434 23.0071C72.5783 23.1165 71.7878 23.3004 71.0719 23.5589C70.3659 23.8175 69.7992 24.1903 69.3716 24.6776C68.954 25.1548 68.7452 25.7912 68.7452 26.5866C68.7452 27.6903 69.1529 28.5256 69.9682 29.0923C70.7836 29.6491 71.8226 29.9276 73.0854 29.9276ZM72.9213 7.03338L76.4114 0.15767H81.1096L76.486 7.03338H72.9213ZM100.476 41.5909V10.0909H104.831V13.8047H105.204C105.463 13.3274 105.836 12.7756 106.323 12.1491C106.81 11.5227 107.486 10.9759 108.351 10.5085C109.216 10.0312 110.36 9.79261 111.782 9.79261C113.631 9.79261 115.282 10.2599 116.733 11.1946C118.185 12.1293 119.324 13.4766 120.149 15.2365C120.984 16.9964 121.402 19.1143 121.402 21.5902C121.402 24.0661 120.989 26.1889 120.164 27.9588C119.339 29.7187 118.205 31.076 116.763 32.0305C115.322 32.9751 113.676 33.4474 111.827 33.4474C110.434 33.4474 109.296 33.2138 108.411 32.7464C107.536 32.2791 106.85 31.7322 106.353 31.1058C105.856 30.4794 105.473 29.9226 105.204 29.4354H104.936V41.5909H100.476ZM104.846 21.5455C104.846 23.1562 105.08 24.5682 105.547 25.7812C106.015 26.9943 106.691 27.9439 107.576 28.63C108.461 29.3061 109.545 29.6442 110.827 29.6442C112.16 29.6442 113.273 29.2912 114.168 28.5852C115.063 27.8693 115.739 26.8999 116.197 25.6768C116.664 24.4538 116.898 23.0767 116.898 21.5455C116.898 20.0341 116.669 18.6768 116.211 17.4737C115.764 16.2706 115.088 15.321 114.183 14.625C113.288 13.929 112.17 13.581 110.827 13.581C109.535 13.581 108.441 13.9141 107.546 14.5803C106.661 15.2464 105.99 16.1761 105.532 17.3693C105.075 18.5625 104.846 19.9545 104.846 21.5455ZM126.398 33V10.0909H130.709V13.7301H130.947C131.365 12.4972 132.101 11.5277 133.155 10.8217C134.219 10.1058 135.422 9.74787 136.764 9.74787C137.042 9.74787 137.371 9.75781 137.748 9.7777C138.136 9.79758 138.439 9.82244 138.658 9.85227V14.1179C138.479 14.0682 138.161 14.0135 137.704 13.9538C137.246 13.8842 136.789 13.8494 136.331 13.8494C135.278 13.8494 134.338 14.0732 133.513 14.5206C132.697 14.9581 132.051 15.5696 131.574 16.3551C131.096 17.1307 130.858 18.0156 130.858 19.0099V33H126.398ZM151.347 33.4624C149.199 33.4624 147.325 32.9702 145.724 31.9858C144.123 31.0014 142.88 29.6243 141.995 27.8544C141.11 26.0845 140.668 24.0163 140.668 21.6499C140.668 19.2734 141.11 17.1953 141.995 15.4155C142.88 13.6357 144.123 12.2536 145.724 11.2692C147.325 10.2848 149.199 9.79261 151.347 9.79261C153.495 9.79261 155.369 10.2848 156.97 11.2692C158.571 12.2536 159.814 13.6357 160.699 15.4155C161.583 17.1953 162.026 19.2734 162.026 21.6499C162.026 24.0163 161.583 26.0845 160.699 27.8544C159.814 29.6243 158.571 31.0014 156.97 31.9858C155.369 32.9702 153.495 33.4624 151.347 33.4624ZM151.362 29.7188C152.754 29.7188 153.907 29.3509 154.822 28.6151C155.737 27.8793 156.413 26.8999 156.85 25.6768C157.298 24.4538 157.522 23.1065 157.522 21.6349C157.522 20.1733 157.298 18.831 156.85 17.608C156.413 16.375 155.737 15.3857 154.822 14.6399C153.907 13.8942 152.754 13.5213 151.362 13.5213C149.96 13.5213 148.797 13.8942 147.872 14.6399C146.957 15.3857 146.276 16.375 145.828 17.608C145.391 18.831 145.172 20.1733 145.172 21.6349C145.172 23.1065 145.391 24.4538 145.828 25.6768C146.276 26.8999 146.957 27.8793 147.872 28.6151C148.797 29.3509 149.96 29.7188 151.362 29.7188ZM171.463 19.3977V33H167.004V10.0909H171.284V13.8196H171.568C172.095 12.6065 172.92 11.6321 174.044 10.8963C175.177 10.1605 176.604 9.79261 178.324 9.79261C179.885 9.79261 181.252 10.1207 182.426 10.777C183.599 11.4233 184.509 12.3878 185.155 13.6705C185.801 14.9531 186.124 16.5391 186.124 18.4283V33H181.665V18.9652C181.665 17.3047 181.232 16.0071 180.367 15.0724C179.502 14.1278 178.314 13.6555 176.803 13.6555C175.769 13.6555 174.849 13.8793 174.044 14.3267C173.248 14.7741 172.617 15.4304 172.149 16.2955C171.692 17.1506 171.463 18.1847 171.463 19.3977ZM202.799 10.0909V13.6705H190.286V10.0909H202.799ZM193.642 4.60227H198.101V26.2734C198.101 27.1385 198.23 27.7898 198.489 28.2273C198.747 28.6548 199.08 28.9482 199.488 29.1072C199.906 29.2564 200.358 29.331 200.845 29.331C201.203 29.331 201.517 29.3061 201.785 29.2564C202.053 29.2067 202.262 29.1669 202.411 29.1371L203.217 32.821C202.958 32.9205 202.59 33.0199 202.113 33.1193C201.636 33.2287 201.039 33.2884 200.323 33.2983C199.15 33.3182 198.056 33.1094 197.042 32.6719C196.028 32.2344 195.208 31.5582 194.581 30.6435C193.955 29.7287 193.642 28.5803 193.642 27.1982V4.60227ZM217.136 33.4624C214.988 33.4624 213.114 32.9702 211.513 31.9858C209.912 31.0014 208.669 29.6243 207.784 27.8544C206.9 26.0845 206.457 24.0163 206.457 21.6499C206.457 19.2734 206.9 17.1953 207.784 15.4155C208.669 13.6357 209.912 12.2536 211.513 11.2692C213.114 10.2848 214.988 9.79261 217.136 9.79261C219.284 9.79261 221.158 10.2848 222.759 11.2692C224.36 12.2536 225.603 13.6357 226.488 15.4155C227.373 17.1953 227.815 19.2734 227.815 21.6499C227.815 24.0163 227.373 26.0845 226.488 27.8544C225.603 29.6243 224.36 31.0014 222.759 31.9858C221.158 32.9702 219.284 33.4624 217.136 33.4624ZM217.151 29.7188C218.543 29.7188 219.696 29.3509 220.611 28.6151C221.526 27.8793 222.202 26.8999 222.64 25.6768C223.087 24.4538 223.311 23.1065 223.311 21.6349C223.311 20.1733 223.087 18.831 222.64 17.608C222.202 16.375 221.526 15.3857 220.611 14.6399C219.696 13.8942 218.543 13.5213 217.151 13.5213C215.749 13.5213 214.586 13.8942 213.661 14.6399C212.746 15.3857 212.065 16.375 211.618 17.608C211.18 18.831 210.961 20.1733 210.961 21.6349C210.961 23.1065 211.18 24.4538 211.618 25.6768C212.065 26.8999 212.746 27.8793 213.661 28.6151C214.586 29.3509 215.749 29.7188 217.151 29.7188ZM243.908 41.5909V10.0909H248.263V13.8047H248.636C248.895 13.3274 249.267 12.7756 249.755 12.1491C250.242 11.5227 250.918 10.9759 251.783 10.5085C252.648 10.0312 253.792 9.79261 255.213 9.79261C257.063 9.79261 258.713 10.2599 260.165 11.1946C261.617 12.1293 262.755 13.4766 263.581 15.2365C264.416 16.9964 264.833 19.1143 264.833 21.5902C264.833 24.0661 264.421 26.1889 263.596 27.9588C262.77 29.7187 261.637 31.076 260.195 32.0305C258.753 32.9751 257.108 33.4474 255.258 33.4474C253.866 33.4474 252.728 33.2138 251.843 32.7464C250.968 32.2791 250.282 31.7322 249.784 31.1058C249.287 30.4794 248.904 29.9226 248.636 29.4354H248.368V41.5909H243.908ZM248.278 21.5455C248.278 23.1562 248.512 24.5682 248.979 25.7812C249.446 26.9943 250.123 27.9439 251.007 28.63C251.892 29.3061 252.976 29.6442 254.259 29.6442C255.591 29.6442 256.705 29.2912 257.6 28.5852C258.495 27.8693 259.171 26.8999 259.628 25.6768C260.096 24.4538 260.329 23.0767 260.329 21.5455C260.329 20.0341 260.1 18.6768 259.643 17.4737C259.196 16.2706 258.52 15.321 257.615 14.625C256.72 13.929 255.601 13.581 254.259 13.581C252.966 13.581 251.873 13.9141 250.978 14.5803C250.093 15.2464 249.422 16.1761 248.964 17.3693C248.507 18.5625 248.278 19.9545 248.278 21.5455ZM276.497 33.5071C275.045 33.5071 273.733 33.2386 272.559 32.7017C271.386 32.1548 270.456 31.3643 269.77 30.3303C269.094 29.2962 268.756 28.0284 268.756 26.527C268.756 25.2344 269.005 24.1705 269.502 23.3352C269.999 22.5 270.67 21.8388 271.515 21.3516C272.36 20.8643 273.305 20.4964 274.349 20.2479C275.393 19.9993 276.457 19.8104 277.541 19.6811C278.913 19.522 280.027 19.3928 280.882 19.2933C281.737 19.1839 282.358 19.0099 282.746 18.7713C283.134 18.5327 283.328 18.1449 283.328 17.608V17.5036C283.328 16.201 282.96 15.1918 282.224 14.4759C281.498 13.7599 280.414 13.402 278.973 13.402C277.471 13.402 276.288 13.7351 275.423 14.4013C274.568 15.0575 273.976 15.7884 273.648 16.5938L269.457 15.6392C269.954 14.2472 270.68 13.1236 271.635 12.2685C272.599 11.4034 273.708 10.777 274.961 10.3892C276.213 9.99148 277.531 9.79261 278.913 9.79261C279.828 9.79261 280.797 9.90199 281.821 10.1207C282.855 10.3295 283.82 10.7173 284.715 11.2841C285.62 11.8509 286.36 12.6612 286.937 13.7152C287.514 14.7592 287.802 16.1165 287.802 17.7869V33H283.447V29.8679H283.268C282.98 30.4446 282.547 31.0114 281.971 31.5682C281.394 32.125 280.653 32.5874 279.748 32.9553C278.843 33.3232 277.76 33.5071 276.497 33.5071ZM277.466 29.9276C278.699 29.9276 279.753 29.6839 280.628 29.1967C281.513 28.7095 282.184 28.0732 282.642 27.2876C283.109 26.4922 283.343 25.642 283.343 24.7372V21.7841C283.184 21.9432 282.875 22.0923 282.418 22.2315C281.971 22.3608 281.458 22.4751 280.882 22.5746C280.305 22.6641 279.743 22.7486 279.196 22.8281C278.65 22.8977 278.192 22.9574 277.824 23.0071C276.959 23.1165 276.169 23.3004 275.453 23.5589C274.747 23.8175 274.18 24.1903 273.752 24.6776C273.335 25.1548 273.126 25.7912 273.126 26.5866C273.126 27.6903 273.534 28.5256 274.349 29.0923C275.164 29.6491 276.203 29.9276 277.466 29.9276ZM293.742 33V10.0909H298.052V13.7301H298.291C298.709 12.4972 299.444 11.5277 300.498 10.8217C301.562 10.1058 302.765 9.74787 304.108 9.74787C304.386 9.74787 304.714 9.75781 305.092 9.7777C305.48 9.79758 305.783 9.82244 306.002 9.85227V14.1179C305.823 14.0682 305.505 14.0135 305.047 13.9538C304.59 13.8842 304.133 13.8494 303.675 13.8494C302.621 13.8494 301.682 14.0732 300.856 14.5206C300.041 14.9581 299.395 15.5696 298.917 16.3551C298.44 17.1307 298.202 18.0156 298.202 19.0099V33H293.742ZM316.323 33.5071C314.871 33.5071 313.559 33.2386 312.385 32.7017C311.212 32.1548 310.282 31.3643 309.596 30.3303C308.92 29.2962 308.582 28.0284 308.582 26.527C308.582 25.2344 308.831 24.1705 309.328 23.3352C309.825 22.5 310.496 21.8388 311.341 21.3516C312.187 20.8643 313.131 20.4964 314.175 20.2479C315.219 19.9993 316.283 19.8104 317.367 19.6811C318.739 19.522 319.853 19.3928 320.708 19.2933C321.563 19.1839 322.184 19.0099 322.572 18.7713C322.96 18.5327 323.154 18.1449 323.154 17.608V17.5036C323.154 16.201 322.786 15.1918 322.05 14.4759C321.324 13.7599 320.241 13.402 318.799 13.402C317.297 13.402 316.114 13.7351 315.249 14.4013C314.394 15.0575 313.802 15.7884 313.474 16.5938L309.283 15.6392C309.78 14.2472 310.506 13.1236 311.461 12.2685C312.425 11.4034 313.534 10.777 314.787 10.3892C316.04 9.99148 317.357 9.79261 318.739 9.79261C319.654 9.79261 320.623 9.90199 321.648 10.1207C322.682 10.3295 323.646 10.7173 324.541 11.2841C325.446 11.8509 326.187 12.6612 326.763 13.7152C327.34 14.7592 327.628 16.1165 327.628 17.7869V33H323.273V29.8679H323.094C322.806 30.4446 322.373 31.0114 321.797 31.5682C321.22 32.125 320.479 32.5874 319.574 32.9553C318.67 33.3232 317.586 33.5071 316.323 33.5071ZM317.292 29.9276C318.525 29.9276 319.579 29.6839 320.454 29.1967C321.339 28.7095 322.01 28.0732 322.468 27.2876C322.935 26.4922 323.169 25.642 323.169 24.7372V21.7841C323.01 21.9432 322.702 22.0923 322.244 22.2315C321.797 22.3608 321.285 22.4751 320.708 22.5746C320.131 22.6641 319.569 22.7486 319.023 22.8281C318.476 22.8977 318.018 22.9574 317.65 23.0071C316.785 23.1165 315.995 23.3004 315.279 23.5589C314.573 23.8175 314.006 24.1903 313.579 24.6776C313.161 25.1548 312.952 25.7912 312.952 26.5866C312.952 27.6903 313.36 28.5256 314.175 29.0923C314.991 29.6491 316.03 29.9276 317.292 29.9276ZM353.259 33.4474C351.41 33.4474 349.759 32.9751 348.308 32.0305C346.866 31.076 345.732 29.7187 344.907 27.9588C344.092 26.1889 343.684 24.0661 343.684 21.5902C343.684 19.1143 344.097 16.9964 344.922 15.2365C345.757 13.4766 346.901 12.1293 348.352 11.1946C349.804 10.2599 351.45 9.79261 353.289 9.79261C354.711 9.79261 355.855 10.0312 356.72 10.5085C357.595 10.9759 358.271 11.5227 358.748 12.1491C359.235 12.7756 359.613 13.3274 359.882 13.8047H360.15V2.45454H364.61V33H360.254V29.4354H359.882C359.613 29.9226 359.225 30.4794 358.718 31.1058C358.221 31.7322 357.535 32.2791 356.66 32.7464C355.785 33.2138 354.651 33.4474 353.259 33.4474ZM354.244 29.6442C355.526 29.6442 356.61 29.3061 357.495 28.63C358.39 27.9439 359.066 26.9943 359.524 25.7812C359.991 24.5682 360.225 23.1562 360.225 21.5455C360.225 19.9545 359.996 18.5625 359.539 17.3693C359.081 16.1761 358.41 15.2464 357.525 14.5803C356.64 13.9141 355.546 13.581 354.244 13.581C352.901 13.581 351.783 13.929 350.888 14.625C349.993 15.321 349.317 16.2706 348.86 17.4737C348.412 18.6768 348.188 20.0341 348.188 21.5455C348.188 23.0767 348.417 24.4538 348.874 25.6768C349.332 26.8999 350.008 27.8693 350.903 28.5852C351.808 29.2912 352.921 29.6442 354.244 29.6442ZM377.641 33.5071C376.19 33.5071 374.877 33.2386 373.704 32.7017C372.531 32.1548 371.601 31.3643 370.915 30.3303C370.239 29.2962 369.901 28.0284 369.901 26.527C369.901 25.2344 370.149 24.1705 370.646 23.3352C371.143 22.5 371.815 21.8388 372.66 21.3516C373.505 20.8643 374.45 20.4964 375.494 20.2479C376.538 19.9993 377.602 19.8104 378.685 19.6811C380.058 19.522 381.171 19.3928 382.026 19.2933C382.881 19.1839 383.503 19.0099 383.891 18.7713C384.278 18.5327 384.472 18.1449 384.472 17.608V17.5036C384.472 16.201 384.104 15.1918 383.369 14.4759C382.643 13.7599 381.559 13.402 380.117 13.402C378.616 13.402 377.433 13.7351 376.567 14.4013C375.712 15.0575 375.121 15.7884 374.793 16.5938L370.602 15.6392C371.099 14.2472 371.825 13.1236 372.779 12.2685C373.744 11.4034 374.852 10.777 376.105 10.3892C377.358 9.99148 378.675 9.79261 380.058 9.79261C380.972 9.79261 381.942 9.90199 382.966 10.1207C384 10.3295 384.964 10.7173 385.859 11.2841C386.764 11.8509 387.505 12.6612 388.082 13.7152C388.658 14.7592 388.947 16.1165 388.947 17.7869V33H384.592V29.8679H384.413C384.124 30.4446 383.692 31.0114 383.115 31.5682C382.538 32.125 381.798 32.5874 380.893 32.9553C379.988 33.3232 378.904 33.5071 377.641 33.5071ZM378.611 29.9276C379.844 29.9276 380.898 29.6839 381.773 29.1967C382.658 28.7095 383.329 28.0732 383.786 27.2876C384.254 26.4922 384.487 25.642 384.487 24.7372V21.7841C384.328 21.9432 384.02 22.0923 383.562 22.2315C383.115 22.3608 382.603 22.4751 382.026 22.5746C381.45 22.6641 380.888 22.7486 380.341 22.8281C379.794 22.8977 379.337 22.9574 378.969 23.0071C378.104 23.1165 377.313 23.3004 376.597 23.5589C375.891 23.8175 375.325 24.1903 374.897 24.6776C374.479 25.1548 374.271 25.7912 374.271 26.5866C374.271 27.6903 374.678 28.5256 375.494 29.0923C376.309 29.6491 377.348 29.9276 378.611 29.9276ZM394.887 33V10.0909H399.197V13.7301H399.436C399.853 12.4972 400.589 11.5277 401.643 10.8217C402.707 10.1058 403.91 9.74787 405.252 9.74787C405.531 9.74787 405.859 9.75781 406.237 9.7777C406.624 9.79758 406.928 9.82244 407.146 9.85227V14.1179C406.968 14.0682 406.649 14.0135 406.192 13.9538C405.735 13.8842 405.277 13.8494 404.82 13.8494C403.766 13.8494 402.826 14.0732 402.001 14.5206C401.186 14.9581 400.539 15.5696 400.062 16.3551C399.585 17.1307 399.346 18.0156 399.346 19.0099V33H394.887ZM441.719 10.0909L433.411 33H428.639L420.316 10.0909H425.104L430.906 27.7202H431.144L436.931 10.0909H441.719ZM454.781 33.4624C452.633 33.4624 450.759 32.9702 449.158 31.9858C447.557 31.0014 446.314 29.6243 445.429 27.8544C444.544 26.0845 444.102 24.0163 444.102 21.6499C444.102 19.2734 444.544 17.1953 445.429 15.4155C446.314 13.6357 447.557 12.2536 449.158 11.2692C450.759 10.2848 452.633 9.79261 454.781 9.79261C456.928 9.79261 458.803 10.2848 460.403 11.2692C462.004 12.2536 463.247 13.6357 464.132 15.4155C465.017 17.1953 465.46 19.2734 465.46 21.6499C465.46 24.0163 465.017 26.0845 464.132 27.8544C463.247 29.6243 462.004 31.0014 460.403 31.9858C458.803 32.9702 456.928 33.4624 454.781 33.4624ZM454.795 29.7188C456.188 29.7188 457.341 29.3509 458.256 28.6151C459.17 27.8793 459.847 26.8999 460.284 25.6768C460.732 24.4538 460.955 23.1065 460.955 21.6349C460.955 20.1733 460.732 18.831 460.284 17.608C459.847 16.375 459.17 15.3857 458.256 14.6399C457.341 13.8942 456.188 13.5213 454.795 13.5213C453.393 13.5213 452.23 13.8942 451.305 14.6399C450.391 15.3857 449.71 16.375 449.262 17.608C448.825 18.831 448.606 20.1733 448.606 21.6349C448.606 23.1065 448.825 24.4538 449.262 25.6768C449.71 26.8999 450.391 27.8793 451.305 28.6151C452.23 29.3509 453.393 29.7188 454.795 29.7188ZM469.96 33V29.9425L482.369 14.1776V13.9688H470.363V10.0909H487.932V13.3423L476.001 28.9134V29.1222H488.35V33H469.96ZM511.393 33.5071C509.942 33.5071 508.629 33.2386 507.456 32.7017C506.282 32.1548 505.353 31.3643 504.667 30.3303C503.991 29.2962 503.653 28.0284 503.653 26.527C503.653 25.2344 503.901 24.1705 504.398 23.3352C504.895 22.5 505.567 21.8388 506.412 21.3516C507.257 20.8643 508.202 20.4964 509.246 20.2479C510.29 19.9993 511.354 19.8104 512.437 19.6811C513.809 19.522 514.923 19.3928 515.778 19.2933C516.633 19.1839 517.255 19.0099 517.643 18.7713C518.03 18.5327 518.224 18.1449 518.224 17.608V17.5036C518.224 16.201 517.856 15.1918 517.121 14.4759C516.395 13.7599 515.311 13.402 513.869 13.402C512.368 13.402 511.184 13.7351 510.319 14.4013C509.464 15.0575 508.873 15.7884 508.545 16.5938L504.354 15.6392C504.851 14.2472 505.577 13.1236 506.531 12.2685C507.496 11.4034 508.604 10.777 509.857 10.3892C511.11 9.99148 512.427 9.79261 513.809 9.79261C514.724 9.79261 515.694 9.90199 516.718 10.1207C517.752 10.3295 518.716 10.7173 519.611 11.2841C520.516 11.8509 521.257 12.6612 521.834 13.7152C522.41 14.7592 522.699 16.1165 522.699 17.7869V33H518.344V29.8679H518.165C517.876 30.4446 517.444 31.0114 516.867 31.5682C516.29 32.125 515.55 32.5874 514.645 32.9553C513.74 33.3232 512.656 33.5071 511.393 33.5071ZM512.363 29.9276C513.596 29.9276 514.65 29.6839 515.525 29.1967C516.41 28.7095 517.081 28.0732 517.538 27.2876C518.006 26.4922 518.239 25.642 518.239 24.7372V21.7841C518.08 21.9432 517.772 22.0923 517.314 22.2315C516.867 22.3608 516.355 22.4751 515.778 22.5746C515.202 22.6641 514.64 22.7486 514.093 22.8281C513.546 22.8977 513.089 22.9574 512.721 23.0071C511.856 23.1165 511.065 23.3004 510.349 23.5589C509.643 23.8175 509.077 24.1903 508.649 24.6776C508.231 25.1548 508.023 25.7912 508.023 26.5866C508.023 27.6903 508.43 28.5256 509.246 29.0923C510.061 29.6491 511.1 29.9276 512.363 29.9276ZM512.303 7.03338L507.694 0.15767H512.393L515.868 7.03338H512.303ZM545.805 15.6839L541.763 16.3999C541.594 15.8828 541.326 15.3906 540.958 14.9233C540.6 14.456 540.113 14.0732 539.496 13.7749C538.88 13.4766 538.109 13.3274 537.185 13.3274C535.922 13.3274 534.868 13.6108 534.023 14.1776C533.178 14.7344 532.755 15.4553 532.755 16.3402C532.755 17.1058 533.038 17.7223 533.605 18.1896C534.172 18.657 535.087 19.0398 536.349 19.3381L539.989 20.1733C542.097 20.6605 543.668 21.4112 544.702 22.4254C545.736 23.4396 546.253 24.7571 546.253 26.3778C546.253 27.75 545.855 28.973 545.06 30.0469C544.274 31.1108 543.175 31.946 541.763 32.5526C540.362 33.1591 538.736 33.4624 536.886 33.4624C534.321 33.4624 532.228 32.9155 530.607 31.8217C528.987 30.718 527.992 29.152 527.624 27.1236L531.935 26.4673C532.203 27.5909 532.755 28.4411 533.59 29.0178C534.425 29.5845 535.514 29.8679 536.857 29.8679C538.318 29.8679 539.487 29.5646 540.362 28.9581C541.237 28.3416 541.674 27.5909 541.674 26.706C541.674 25.9901 541.406 25.3885 540.869 24.9013C540.342 24.4141 539.531 24.0462 538.438 23.7976L534.56 22.9474C532.422 22.4602 530.841 21.6847 529.817 20.6207C528.803 19.5568 528.295 18.2095 528.295 16.5788C528.295 15.2266 528.673 14.0433 529.429 13.0291C530.185 12.0149 531.229 11.2244 532.561 10.6577C533.893 10.081 535.42 9.79261 537.14 9.79261C539.616 9.79261 541.565 10.3295 542.987 11.4034C544.408 12.4673 545.348 13.8942 545.805 15.6839ZM19.1648 66.6839L15.1229 67.3999C14.9538 66.8828 14.6854 66.3906 14.3175 65.9233C13.9595 65.456 13.4723 65.0732 12.8558 64.7749C12.2393 64.4766 11.4688 64.3274 10.544 64.3274C9.28125 64.3274 8.22727 64.6108 7.3821 65.1776C6.53693 65.7344 6.11435 66.4553 6.11435 67.3402C6.11435 68.1058 6.39773 68.7223 6.96449 69.1896C7.53125 69.657 8.44602 70.0398 9.70881 70.3381L13.348 71.1733C15.456 71.6605 17.027 72.4112 18.0611 73.4254C19.0952 74.4396 19.6122 75.7571 19.6122 77.3778C19.6122 78.75 19.2145 79.973 18.419 81.0469C17.6335 82.1108 16.5348 82.946 15.1229 83.5526C13.7209 84.1591 12.0952 84.4624 10.2457 84.4624C7.6804 84.4624 5.58736 83.9155 3.96662 82.8217C2.34588 81.718 1.35156 80.152 0.983665 78.1236L5.29403 77.4673C5.5625 78.5909 6.11435 79.4411 6.94957 80.0178C7.7848 80.5845 8.87358 80.8679 10.2159 80.8679C11.6776 80.8679 12.8459 80.5646 13.7209 79.9581C14.5959 79.3416 15.0334 78.5909 15.0334 77.706C15.0334 76.9901 14.7649 76.3885 14.228 75.9013C13.701 75.4141 12.8906 75.0462 11.7969 74.7976L7.91903 73.9474C5.78125 73.4602 4.20028 72.6847 3.17614 71.6207C2.16193 70.5568 1.65483 69.2095 1.65483 67.5788C1.65483 66.2266 2.03267 65.0433 2.78835 64.0291C3.54403 63.0149 4.58807 62.2244 5.92045 61.6577C7.25284 61.081 8.77912 60.7926 10.4993 60.7926C12.9751 60.7926 14.924 61.3295 16.3459 62.4034C17.7678 63.4673 18.7074 64.8942 19.1648 66.6839ZM39.0275 74.4993V61.0909H43.502V84H39.117V80.0327H38.8784C38.3514 81.2557 37.5062 82.2749 36.3429 83.0902C35.1895 83.8956 33.7527 84.2983 32.0325 84.2983C30.5609 84.2983 29.2583 83.9751 28.1248 83.3288C27.0012 82.6726 26.1163 81.7031 25.47 80.4205C24.8336 79.1378 24.5154 77.5518 24.5154 75.6626V61.0909H28.975V75.1257C28.975 76.6868 29.4075 77.9297 30.2726 78.8544C31.1376 79.7791 32.2612 80.2415 33.6433 80.2415C34.4785 80.2415 35.3088 80.0327 36.1341 79.6151C36.9693 79.1974 37.6603 78.5661 38.2072 77.7209C38.764 76.8757 39.0375 75.8018 39.0275 74.4993ZM56.1609 84.5071C54.7092 84.5071 53.3967 84.2386 52.2234 83.7017C51.0501 83.1548 50.1204 82.3643 49.4343 81.3303C48.7582 80.2962 48.4201 79.0284 48.4201 77.527C48.4201 76.2344 48.6687 75.1705 49.1658 74.3352C49.663 73.5 50.3342 72.8388 51.1793 72.3516C52.0245 71.8643 52.9691 71.4964 54.0131 71.2479C55.0572 70.9993 56.1211 70.8104 57.2049 70.6811C58.5771 70.522 59.6907 70.3928 60.5458 70.2933C61.4009 70.1839 62.0224 70.0099 62.4102 69.7713C62.7979 69.5327 62.9918 69.1449 62.9918 68.608V68.5036C62.9918 67.201 62.6239 66.1918 61.8881 65.4759C61.1623 64.7599 60.0785 64.402 58.6367 64.402C57.1353 64.402 55.9521 64.7351 55.087 65.4013C54.2319 66.0575 53.6403 66.7884 53.3121 67.5938L49.1211 66.6392C49.6183 65.2472 50.3441 64.1236 51.2987 63.2685C52.2631 62.4034 53.3718 61.777 54.6246 61.3892C55.8775 60.9915 57.195 60.7926 58.5771 60.7926C59.4918 60.7926 60.4613 60.902 61.4854 61.1207C62.5195 61.3295 63.484 61.7173 64.3789 62.2841C65.2837 62.8509 66.0245 63.6612 66.6012 64.7152C67.1779 65.7592 67.4663 67.1165 67.4663 68.7869V84H63.1112V80.8679H62.9322C62.6438 81.4446 62.2113 82.0114 61.6346 82.5682C61.0579 83.125 60.3171 83.5874 59.4123 83.9553C58.5075 84.3232 57.4237 84.5071 56.1609 84.5071ZM57.1303 80.9276C58.3633 80.9276 59.4173 80.6839 60.2923 80.1967C61.1772 79.7095 61.8484 79.0732 62.3058 78.2876C62.7731 77.4922 63.0067 76.642 63.0067 75.7372V72.7841C62.8477 72.9432 62.5394 73.0923 62.082 73.2315C61.6346 73.3608 61.1225 73.4751 60.5458 73.5746C59.9691 73.6641 59.4073 73.7486 58.8604 73.8281C58.3136 73.8977 57.8562 73.9574 57.4883 74.0071C56.6232 74.1165 55.8327 74.3004 55.1168 74.5589C54.4109 74.8175 53.8441 75.1903 53.4165 75.6776C52.9989 76.1548 52.7901 76.7912 52.7901 77.5866C52.7901 78.6903 53.1978 79.5256 54.0131 80.0923C54.8285 80.6491 55.8675 80.9276 57.1303 80.9276ZM90.573 66.6839L86.5311 67.3999C86.362 66.8828 86.0936 66.3906 85.7257 65.9233C85.3677 65.456 84.8805 65.0732 84.264 64.7749C83.6476 64.4766 82.877 64.3274 81.9522 64.3274C80.6895 64.3274 79.6355 64.6108 78.7903 65.1776C77.9451 65.7344 77.5225 66.4553 77.5225 67.3402C77.5225 68.1058 77.8059 68.7223 78.3727 69.1896C78.9395 69.657 79.8542 70.0398 81.117 70.3381L84.7562 71.1733C86.8642 71.6605 88.4352 72.4112 89.4693 73.4254C90.5034 74.4396 91.0204 75.7571 91.0204 77.3778C91.0204 78.75 90.6227 79.973 89.8272 81.0469C89.0417 82.1108 87.943 82.946 86.5311 83.5526C85.1291 84.1591 83.5034 84.4624 81.6539 84.4624C79.0886 84.4624 76.9956 83.9155 75.3748 82.8217C73.7541 81.718 72.7598 80.152 72.3919 78.1236L76.7022 77.4673C76.9707 78.5909 77.5226 79.4411 78.3578 80.0178C79.193 80.5845 80.2818 80.8679 81.6241 80.8679C83.0858 80.8679 84.2541 80.5646 85.1291 79.9581C86.0041 79.3416 86.4416 78.5909 86.4416 77.706C86.4416 76.9901 86.1731 76.3885 85.6362 75.9013C85.1092 75.4141 84.2988 75.0462 83.2051 74.7976L79.3272 73.9474C77.1895 73.4602 75.6085 72.6847 74.5843 71.6207C73.5701 70.5568 73.063 69.2095 73.063 67.5788C73.063 66.2266 73.4409 65.0433 74.1966 64.0291C74.9522 63.0149 75.9963 62.2244 77.3287 61.6577C78.661 61.081 80.1873 60.7926 81.9075 60.7926C84.3833 60.7926 86.3322 61.3295 87.7541 62.4034C89.176 63.4673 90.1156 64.8942 90.573 66.6839ZM116.689 84.4624C114.541 84.4624 112.667 83.9702 111.066 82.9858C109.465 82.0014 108.222 80.6243 107.337 78.8544C106.452 77.0845 106.01 75.0163 106.01 72.6499C106.01 70.2734 106.452 68.1953 107.337 66.4155C108.222 64.6357 109.465 63.2536 111.066 62.2692C112.667 61.2848 114.541 60.7926 116.689 60.7926C118.836 60.7926 120.711 61.2848 122.312 62.2692C123.912 63.2536 125.155 64.6357 126.04 66.4155C126.925 68.1953 127.368 70.2734 127.368 72.6499C127.368 75.0163 126.925 77.0845 126.04 78.8544C125.155 80.6243 123.912 82.0014 122.312 82.9858C120.711 83.9702 118.836 84.4624 116.689 84.4624ZM116.704 80.7188C118.096 80.7188 119.249 80.3509 120.164 79.6151C121.079 78.8793 121.755 77.8999 122.192 76.6768C122.64 75.4538 122.863 74.1065 122.863 72.6349C122.863 71.1733 122.64 69.831 122.192 68.608C121.755 67.375 121.079 66.3857 120.164 65.6399C119.249 64.8942 118.096 64.5213 116.704 64.5213C115.302 64.5213 114.138 64.8942 113.214 65.6399C112.299 66.3857 111.618 67.375 111.17 68.608C110.733 69.831 110.514 71.1733 110.514 72.6349C110.514 74.1065 110.733 75.4538 111.17 76.6768C111.618 77.8999 112.299 78.8793 113.214 79.6151C114.138 80.3509 115.302 80.7188 116.704 80.7188ZM132.346 92.5909V61.0909H136.701V64.8047H137.074C137.332 64.3274 137.705 63.7756 138.192 63.1491C138.679 62.5227 139.355 61.9759 140.221 61.5085C141.086 61.0312 142.229 60.7926 143.651 60.7926C145.5 60.7926 147.151 61.2599 148.603 62.1946C150.054 63.1293 151.193 64.4766 152.018 66.2365C152.853 67.9964 153.271 70.1143 153.271 72.5902C153.271 75.0661 152.858 77.1889 152.033 78.9588C151.208 80.7187 150.074 82.076 148.632 83.0305C147.191 83.9751 145.545 84.4474 143.696 84.4474C142.304 84.4474 141.165 84.2138 140.28 83.7464C139.405 83.2791 138.719 82.7322 138.222 82.1058C137.725 81.4794 137.342 80.9226 137.074 80.4354H136.805V92.5909H132.346ZM136.716 72.5455C136.716 74.1562 136.949 75.5682 137.417 76.7812C137.884 77.9943 138.56 78.9439 139.445 79.63C140.33 80.3061 141.414 80.6442 142.696 80.6442C144.029 80.6442 145.142 80.2912 146.037 79.5852C146.932 78.8693 147.608 77.8999 148.066 76.6768C148.533 75.4538 148.767 74.0767 148.767 72.5455C148.767 71.0341 148.538 69.6768 148.081 68.4737C147.633 67.2706 146.957 66.321 146.052 65.625C145.157 64.929 144.039 64.581 142.696 64.581C141.404 64.581 140.31 64.9141 139.415 65.5803C138.53 66.2464 137.859 67.1761 137.402 68.3693C136.944 69.5625 136.716 70.9545 136.716 72.5455ZM158.267 84V61.0909H162.727V84H158.267ZM160.52 57.5561C159.744 57.5561 159.078 57.2976 158.521 56.7805C157.974 56.2535 157.701 55.6271 157.701 54.9013C157.701 54.1655 157.974 53.5391 158.521 53.022C159.078 52.495 159.744 52.2315 160.52 52.2315C161.295 52.2315 161.956 52.495 162.503 53.022C163.06 53.5391 163.338 54.1655 163.338 54.9013C163.338 55.6271 163.06 56.2535 162.503 56.7805C161.956 57.2976 161.295 57.5561 160.52 57.5561ZM173.186 70.3977V84H168.726V61.0909H173.007V64.8196H173.29C173.817 63.6065 174.643 62.6321 175.766 61.8963C176.9 61.1605 178.327 60.7926 180.047 60.7926C181.608 60.7926 182.975 61.1207 184.148 61.777C185.322 62.4233 186.231 63.3878 186.878 64.6705C187.524 65.9531 187.847 67.5391 187.847 69.4283V84H183.388V69.9652C183.388 68.3047 182.955 67.0071 182.09 66.0724C181.225 65.1278 180.037 64.6555 178.525 64.6555C177.491 64.6555 176.572 64.8793 175.766 65.3267C174.971 65.7741 174.339 66.4304 173.872 67.2955C173.415 68.1506 173.186 69.1847 173.186 70.3977ZM193.828 84V61.0909H198.287V84H193.828ZM196.08 57.5561C195.305 57.5561 194.638 57.2976 194.081 56.7805C193.535 56.2535 193.261 55.6271 193.261 54.9013C193.261 54.1655 193.535 53.5391 194.081 53.022C194.638 52.495 195.305 52.2315 196.08 52.2315C196.856 52.2315 197.517 52.495 198.064 53.022C198.621 53.5391 198.899 54.1655 198.899 54.9013C198.899 55.6271 198.621 56.2535 198.064 56.7805C197.517 57.2976 196.856 57.5561 196.08 57.5561ZM213.937 84.4624C211.789 84.4624 209.915 83.9702 208.314 82.9858C206.713 82.0014 205.47 80.6243 204.585 78.8544C203.7 77.0845 203.258 75.0163 203.258 72.6499C203.258 70.2734 203.7 68.1953 204.585 66.4155C205.47 64.6357 206.713 63.2536 208.314 62.2692C209.915 61.2848 211.789 60.7926 213.937 60.7926C216.085 60.7926 217.959 61.2848 219.56 62.2692C221.161 63.2536 222.403 64.6357 223.288 66.4155C224.173 68.1953 224.616 70.2734 224.616 72.6499C224.616 75.0163 224.173 77.0845 223.288 78.8544C222.403 80.6243 221.161 82.0014 219.56 82.9858C217.959 83.9702 216.085 84.4624 213.937 84.4624ZM213.952 80.7188C215.344 80.7188 216.497 80.3509 217.412 79.6151C218.327 78.8793 219.003 77.8999 219.44 76.6768C219.888 75.4538 220.112 74.1065 220.112 72.6349C220.112 71.1733 219.888 69.831 219.44 68.608C219.003 67.375 218.327 66.3857 217.412 65.6399C216.497 64.8942 215.344 64.5213 213.952 64.5213C212.55 64.5213 211.386 64.8942 210.462 65.6399C209.547 66.3857 208.866 67.375 208.418 68.608C207.981 69.831 207.762 71.1733 207.762 72.6349C207.762 74.1065 207.981 75.4538 208.418 76.6768C208.866 77.8999 209.547 78.8793 210.462 79.6151C211.386 80.3509 212.55 80.7188 213.952 80.7188ZM209.447 58.3168L206.45 58.2273C206.45 56.5767 206.892 55.2592 207.777 54.2749C208.672 53.2905 209.776 52.7983 211.088 52.7983C211.695 52.7983 212.227 52.9027 212.684 53.1115C213.141 53.3104 213.569 53.544 213.967 53.8125C214.374 54.071 214.777 54.3047 215.175 54.5135C215.582 54.7124 216.035 54.8118 216.532 54.8118C217.109 54.8118 217.576 54.593 217.934 54.1555C218.302 53.718 218.486 53.1761 218.486 52.5298L221.424 52.7237C221.424 54.3842 220.977 55.6918 220.082 56.6463C219.187 57.5909 218.088 58.0682 216.786 58.0781C216.08 58.0781 215.493 57.9787 215.026 57.7798C214.568 57.571 214.161 57.3374 213.803 57.0788C213.445 56.8104 213.077 56.5717 212.699 56.3629C212.321 56.1541 211.869 56.0497 211.342 56.0497C210.785 56.0497 210.327 56.2685 209.969 56.706C209.621 57.1335 209.447 57.6705 209.447 58.3168ZM239.467 84.4624C237.21 84.4624 235.266 83.9801 233.635 83.0156C232.015 82.0412 230.762 80.674 229.877 78.9141C229.002 77.1442 228.564 75.071 228.564 72.6946C228.564 70.348 229.002 68.2798 229.877 66.4901C230.762 64.7003 231.995 63.3033 233.576 62.299C235.167 61.2947 237.026 60.7926 239.154 60.7926C240.447 60.7926 241.699 61.0064 242.912 61.4339C244.126 61.8615 245.214 62.5327 246.179 63.4474C247.143 64.3622 247.904 65.5504 248.461 67.0121C249.018 68.4638 249.296 70.2287 249.296 72.3068V73.8878H231.085V70.5469H244.926C244.926 69.3736 244.687 68.3345 244.21 67.4297C243.733 66.5149 243.062 65.794 242.197 65.267C241.341 64.7401 240.337 64.4766 239.184 64.4766C237.931 64.4766 236.837 64.7848 235.903 65.4013C234.978 66.0078 234.262 66.8033 233.755 67.7876C233.258 68.7621 233.009 69.821 233.009 70.9645V73.5746C233.009 75.1058 233.278 76.4084 233.814 77.4822C234.361 78.5561 235.122 79.3764 236.096 79.9432C237.071 80.5 238.209 80.7784 239.512 80.7784C240.357 80.7784 241.128 80.6591 241.824 80.4205C242.52 80.1719 243.121 79.804 243.628 79.3168C244.135 78.8295 244.523 78.228 244.792 77.5121L249.013 78.2727C248.675 79.5156 248.068 80.6044 247.193 81.5391C246.328 82.4638 245.239 83.1847 243.927 83.7017C242.624 84.2088 241.138 84.4624 239.467 84.4624ZM271.411 66.6839L267.369 67.3999C267.2 66.8828 266.931 66.3906 266.564 65.9233C266.206 65.456 265.718 65.0732 265.102 64.7749C264.485 64.4766 263.715 64.3274 262.79 64.3274C261.527 64.3274 260.473 64.6108 259.628 65.1776C258.783 65.7344 258.36 66.4553 258.36 67.3402C258.36 68.1058 258.644 68.7223 259.211 69.1896C259.777 69.657 260.692 70.0398 261.955 70.3381L265.594 71.1733C267.702 71.6605 269.273 72.4112 270.307 73.4254C271.341 74.4396 271.858 75.7571 271.858 77.3778C271.858 78.75 271.461 79.973 270.665 81.0469C269.88 82.1108 268.781 82.946 267.369 83.5526C265.967 84.1591 264.341 84.4624 262.492 84.4624C259.926 84.4624 257.833 83.9155 256.213 82.8217C254.592 81.718 253.598 80.152 253.23 78.1236L257.54 77.4673C257.809 78.5909 258.36 79.4411 259.196 80.0178C260.031 80.5845 261.12 80.8679 262.462 80.8679C263.924 80.8679 265.092 80.5646 265.967 79.9581C266.842 79.3416 267.279 78.5909 267.279 77.706C267.279 76.9901 267.011 76.3885 266.474 75.9013C265.947 75.4141 265.137 75.0462 264.043 74.7976L260.165 73.9474C258.027 73.4602 256.446 72.6847 255.422 71.6207C254.408 70.5568 253.901 69.2095 253.901 67.5788C253.901 66.2266 254.279 65.0433 255.034 64.0291C255.79 63.0149 256.834 62.2244 258.167 61.6577C259.499 61.081 261.025 60.7926 262.745 60.7926C265.221 60.7926 267.17 61.3295 268.592 62.4034C270.014 63.4673 270.953 64.8942 271.411 66.6839ZM297.75 84.4624C295.493 84.4624 293.549 83.9801 291.919 83.0156C290.298 82.0412 289.045 80.674 288.16 78.9141C287.285 77.1442 286.848 75.071 286.848 72.6946C286.848 70.348 287.285 68.2798 288.16 66.4901C289.045 64.7003 290.278 63.3033 291.859 62.299C293.45 61.2947 295.309 60.7926 297.437 60.7926C298.73 60.7926 299.983 61.0064 301.196 61.4339C302.409 61.8615 303.498 62.5327 304.462 63.4474C305.426 64.3622 306.187 65.5504 306.744 67.0121C307.301 68.4638 307.579 70.2287 307.579 72.3068V73.8878H289.368V70.5469H303.209C303.209 69.3736 302.971 68.3345 302.493 67.4297C302.016 66.5149 301.345 65.794 300.48 65.267C299.625 64.7401 298.62 64.4766 297.467 64.4766C296.214 64.4766 295.12 64.7848 294.186 65.4013C293.261 66.0078 292.545 66.8033 292.038 67.7876C291.541 68.7621 291.292 69.821 291.292 70.9645V73.5746C291.292 75.1058 291.561 76.4084 292.098 77.4822C292.645 78.5561 293.405 79.3764 294.38 79.9432C295.354 80.5 296.493 80.7784 297.795 80.7784C298.64 80.7784 299.411 80.6591 300.107 80.4205C300.803 80.1719 301.404 79.804 301.912 79.3168C302.419 78.8295 302.806 78.228 303.075 77.5121L307.296 78.2727C306.958 79.5156 306.351 80.6044 305.476 81.5391C304.611 82.4638 303.522 83.1847 302.21 83.7017C300.907 84.2088 299.421 84.4624 297.75 84.4624ZM334.336 61.0909V64.6705H321.823V61.0909H334.336ZM325.179 55.6023H329.638V77.2734C329.638 78.1385 329.767 78.7898 330.026 79.2273C330.284 79.6548 330.618 79.9482 331.025 80.1072C331.443 80.2564 331.895 80.331 332.382 80.331C332.74 80.331 333.054 80.3061 333.322 80.2564C333.591 80.2067 333.799 80.1669 333.949 80.1371L334.754 83.821C334.495 83.9205 334.127 84.0199 333.65 84.1193C333.173 84.2287 332.576 84.2884 331.86 84.2983C330.687 84.3182 329.593 84.1094 328.579 83.6719C327.565 83.2344 326.745 82.5582 326.118 81.6435C325.492 80.7287 325.179 79.5803 325.179 78.1982V55.6023ZM339.269 84V61.0909H343.58V64.7301H343.818C344.236 63.4972 344.972 62.5277 346.026 61.8217C347.09 61.1058 348.293 60.7479 349.635 60.7479C349.914 60.7479 350.242 60.7578 350.619 60.7777C351.007 60.7976 351.311 60.8224 351.529 60.8523V65.1179C351.35 65.0682 351.032 65.0135 350.575 64.9538C350.117 64.8842 349.66 64.8494 349.203 64.8494C348.149 64.8494 347.209 65.0732 346.384 65.5206C345.568 65.9581 344.922 66.5696 344.445 67.3551C343.968 68.1307 343.729 69.0156 343.729 70.0099V84H339.269ZM361.85 84.5071C360.399 84.5071 359.086 84.2386 357.913 83.7017C356.74 83.1548 355.81 82.3643 355.124 81.3303C354.448 80.2962 354.11 79.0284 354.11 77.527C354.11 76.2344 354.358 75.1705 354.855 74.3352C355.352 73.5 356.024 72.8388 356.869 72.3516C357.714 71.8643 358.659 71.4964 359.703 71.2479C360.747 70.9993 361.811 70.8104 362.894 70.6811C364.267 70.522 365.38 70.3928 366.235 70.2933C367.09 70.1839 367.712 70.0099 368.1 69.7713C368.487 69.5327 368.681 69.1449 368.681 68.608V68.5036C368.681 67.201 368.313 66.1918 367.578 65.4759C366.852 64.7599 365.768 64.402 364.326 64.402C362.825 64.402 361.642 64.7351 360.776 65.4013C359.921 66.0575 359.33 66.7884 359.002 67.5938L354.811 66.6392C355.308 65.2472 356.034 64.1236 356.988 63.2685C357.953 62.4034 359.061 61.777 360.314 61.3892C361.567 60.9915 362.884 60.7926 364.267 60.7926C365.181 60.7926 366.151 60.902 367.175 61.1207C368.209 61.3295 369.173 61.7173 370.068 62.2841C370.973 62.8509 371.714 63.6612 372.291 64.7152C372.867 65.7592 373.156 67.1165 373.156 68.7869V84H368.801V80.8679H368.622C368.333 81.4446 367.901 82.0114 367.324 82.5682C366.747 83.125 366.007 83.5874 365.102 83.9553C364.197 84.3232 363.113 84.5071 361.85 84.5071ZM362.82 80.9276C364.053 80.9276 365.107 80.6839 365.982 80.1967C366.867 79.7095 367.538 79.0732 367.995 78.2876C368.463 77.4922 368.696 76.642 368.696 75.7372V72.7841C368.537 72.9432 368.229 73.0923 367.771 73.2315C367.324 73.3608 366.812 73.4751 366.235 73.5746C365.659 73.6641 365.097 73.7486 364.55 73.8281C364.003 73.8977 363.546 73.9574 363.178 74.0071C362.313 74.1165 361.522 74.3004 360.806 74.5589C360.1 74.8175 359.534 75.1903 359.106 75.6776C358.688 76.1548 358.48 76.7912 358.48 77.5866C358.48 78.6903 358.887 79.5256 359.703 80.0923C360.518 80.6491 361.557 80.9276 362.82 80.9276ZM383.555 70.3977V84H379.096V61.0909H383.376V64.8196H383.659C384.186 63.6065 385.012 62.6321 386.135 61.8963C387.269 61.1605 388.696 60.7926 390.416 60.7926C391.977 60.7926 393.344 61.1207 394.517 61.777C395.691 62.4233 396.6 63.3878 397.247 64.6705C397.893 65.9531 398.216 67.5391 398.216 69.4283V84H393.757V69.9652C393.757 68.3047 393.324 67.0071 392.459 66.0724C391.594 65.1278 390.406 64.6555 388.895 64.6555C387.86 64.6555 386.941 64.8793 386.135 65.3267C385.34 65.7741 384.708 66.4304 384.241 67.2955C383.784 68.1506 383.555 69.1847 383.555 70.3977ZM421.364 66.6839L417.322 67.3999C417.153 66.8828 416.885 66.3906 416.517 65.9233C416.159 65.456 415.672 65.0732 415.055 64.7749C414.439 64.4766 413.668 64.3274 412.743 64.3274C411.48 64.3274 410.426 64.6108 409.581 65.1776C408.736 65.7344 408.314 66.4553 408.314 67.3402C408.314 68.1058 408.597 68.7223 409.164 69.1896C409.73 69.657 410.645 70.0398 411.908 70.3381L415.547 71.1733C417.655 71.6605 419.226 72.4112 420.26 73.4254C421.294 74.4396 421.811 75.7571 421.811 77.3778C421.811 78.75 421.414 79.973 420.618 81.0469C419.833 82.1108 418.734 82.946 417.322 83.5526C415.92 84.1591 414.294 84.4624 412.445 84.4624C409.88 84.4624 407.787 83.9155 406.166 82.8217C404.545 81.718 403.551 80.152 403.183 78.1236L407.493 77.4673C407.762 78.5909 408.314 79.4411 409.149 80.0178C409.984 80.5845 411.073 80.8679 412.415 80.8679C413.877 80.8679 415.045 80.5646 415.92 79.9581C416.795 79.3416 417.233 78.5909 417.233 77.706C417.233 76.9901 416.964 76.3885 416.427 75.9013C415.9 75.4141 415.09 75.0462 413.996 74.7976L410.118 73.9474C407.98 73.4602 406.4 72.6847 405.375 71.6207C404.361 70.5568 403.854 69.2095 403.854 67.5788C403.854 66.2266 404.232 65.0433 404.988 64.0291C405.743 63.0149 406.787 62.2244 408.12 61.6577C409.452 61.081 410.978 60.7926 412.699 60.7926C415.174 60.7926 417.123 61.3295 418.545 62.4034C419.967 63.4673 420.907 64.8942 421.364 66.6839ZM437.617 61.0909V64.6705H424.671V61.0909H437.617ZM428.221 84V58.4361C428.221 57.0043 428.534 55.816 429.161 54.8714C429.787 53.9169 430.617 53.206 431.651 52.7386C432.686 52.2614 433.809 52.0227 435.022 52.0227C435.917 52.0227 436.683 52.0973 437.319 52.2464C437.955 52.3857 438.428 52.5149 438.736 52.6342L437.692 56.2436C437.483 56.1839 437.215 56.1143 436.887 56.0348C436.558 55.9453 436.161 55.9006 435.693 55.9006C434.61 55.9006 433.834 56.169 433.367 56.706C432.909 57.2429 432.681 58.0185 432.681 59.0327V84H428.221ZM450.966 84.4624C448.818 84.4624 446.944 83.9702 445.343 82.9858C443.742 82.0014 442.499 80.6243 441.615 78.8544C440.73 77.0845 440.287 75.0163 440.287 72.6499C440.287 70.2734 440.73 68.1953 441.615 66.4155C442.499 64.6357 443.742 63.2536 445.343 62.2692C446.944 61.2848 448.818 60.7926 450.966 60.7926C453.114 60.7926 454.988 61.2848 456.589 62.2692C458.19 63.2536 459.433 64.6357 460.318 66.4155C461.203 68.1953 461.645 70.2734 461.645 72.6499C461.645 75.0163 461.203 77.0845 460.318 78.8544C459.433 80.6243 458.19 82.0014 456.589 82.9858C454.988 83.9702 453.114 84.4624 450.966 84.4624ZM450.981 80.7188C452.373 80.7188 453.526 80.3509 454.441 79.6151C455.356 78.8793 456.032 77.8999 456.47 76.6768C456.917 75.4538 457.141 74.1065 457.141 72.6349C457.141 71.1733 456.917 69.831 456.47 68.608C456.032 67.375 455.356 66.3857 454.441 65.6399C453.526 64.8942 452.373 64.5213 450.981 64.5213C449.579 64.5213 448.416 64.8942 447.491 65.6399C446.576 66.3857 445.895 67.375 445.448 68.608C445.01 69.831 444.791 71.1733 444.791 72.6349C444.791 74.1065 445.01 75.4538 445.448 76.6768C445.895 77.8999 446.576 78.8793 447.491 79.6151C448.416 80.3509 449.579 80.7188 450.981 80.7188ZM466.623 84V61.0909H470.933V64.7301H471.172C471.589 63.4972 472.325 62.5277 473.379 61.8217C474.443 61.1058 475.646 60.7479 476.989 60.7479C477.267 60.7479 477.595 60.7578 477.973 60.7777C478.361 60.7976 478.664 60.8224 478.883 60.8523V65.1179C478.704 65.0682 478.386 65.0135 477.928 64.9538C477.471 64.8842 477.013 64.8494 476.556 64.8494C475.502 64.8494 474.563 65.0732 473.737 65.5206C472.922 65.9581 472.276 66.5696 471.798 67.3551C471.321 68.1307 471.082 69.0156 471.082 70.0099V84H466.623ZM482.742 84V61.0909H487.023V64.8196H487.306C487.783 63.5568 488.564 62.5724 489.648 61.8665C490.731 61.1506 492.029 60.7926 493.54 60.7926C495.072 60.7926 496.354 61.1506 497.388 61.8665C498.432 62.5824 499.203 63.5668 499.7 64.8196H499.939C500.486 63.5966 501.356 62.6222 502.549 61.8963C503.742 61.1605 505.164 60.7926 506.814 60.7926C508.893 60.7926 510.588 61.4439 511.9 62.7464C513.223 64.049 513.884 66.0128 513.884 68.6378V84H509.425V69.0554C509.425 67.5043 509.002 66.3807 508.157 65.6847C507.312 64.9886 506.302 64.6406 505.129 64.6406C503.677 64.6406 502.549 65.0881 501.743 65.983C500.938 66.8679 500.535 68.0064 500.535 69.3984V84H496.091V68.772C496.091 67.5291 495.703 66.5298 494.927 65.7741C494.152 65.0185 493.143 64.6406 491.9 64.6406C491.055 64.6406 490.274 64.8643 489.558 65.3118C488.852 65.7493 488.28 66.3608 487.843 67.1463C487.415 67.9318 487.202 68.8416 487.202 69.8757V84H482.742ZM526.528 84.5071C525.076 84.5071 523.764 84.2386 522.591 83.7017C521.417 83.1548 520.488 82.3643 519.801 81.3303C519.125 80.2962 518.787 79.0284 518.787 77.527C518.787 76.2344 519.036 75.1705 519.533 74.3352C520.03 73.5 520.701 72.8388 521.547 72.3516C522.392 71.8643 523.336 71.4964 524.38 71.2479C525.424 70.9993 526.488 70.8104 527.572 70.6811C528.944 70.522 530.058 70.3928 530.913 70.2933C531.768 70.1839 532.39 70.0099 532.777 69.7713C533.165 69.5327 533.359 69.1449 533.359 68.608V68.5036C533.359 67.201 532.991 66.1918 532.255 65.4759C531.529 64.7599 530.446 64.402 529.004 64.402C527.502 64.402 526.319 64.7351 525.454 65.4013C524.599 66.0575 524.007 66.7884 523.679 67.5938L519.488 66.6392C519.985 65.2472 520.711 64.1236 521.666 63.2685C522.63 62.4034 523.739 61.777 524.992 61.3892C526.245 60.9915 527.562 60.7926 528.944 60.7926C529.859 60.7926 530.828 60.902 531.853 61.1207C532.887 61.3295 533.851 61.7173 534.746 62.2841C535.651 62.8509 536.392 63.6612 536.968 64.7152C537.545 65.7592 537.833 67.1165 537.833 68.7869V84H533.478V80.8679H533.299C533.011 81.4446 532.578 82.0114 532.002 82.5682C531.425 83.125 530.684 83.5874 529.779 83.9553C528.875 84.3232 527.791 84.5071 526.528 84.5071ZM527.498 80.9276C528.73 80.9276 529.784 80.6839 530.659 80.1967C531.544 79.7095 532.216 79.0732 532.673 78.2876C533.14 77.4922 533.374 76.642 533.374 75.7372V72.7841C533.215 72.9432 532.907 73.0923 532.449 73.2315C532.002 73.3608 531.49 73.4751 530.913 73.5746C530.336 73.6641 529.775 73.7486 529.228 73.8281C528.681 73.8977 528.223 73.9574 527.855 74.0071C526.99 74.1165 526.2 74.3004 525.484 74.5589C524.778 74.8175 524.211 75.1903 523.784 75.6776C523.366 76.1548 523.157 76.7912 523.157 77.5866C523.157 78.6903 523.565 79.5256 524.38 80.0923C525.196 80.6491 526.235 80.9276 527.498 80.9276ZM543.773 84V61.0909H548.084V64.7301H548.322C548.74 63.4972 549.476 62.5277 550.53 61.8217C551.594 61.1058 552.797 60.7479 554.139 60.7479C554.417 60.7479 554.746 60.7578 555.123 60.7777C555.511 60.7976 555.814 60.8224 556.033 60.8523V65.1179C555.854 65.0682 555.536 65.0135 555.079 64.9538C554.621 64.8842 554.164 64.8494 553.706 64.8494C552.653 64.8494 551.713 65.0732 550.888 65.5206C550.072 65.9581 549.426 66.5696 548.949 67.3551C548.471 68.1307 548.233 69.0156 548.233 70.0099V84H543.773ZM19.1648 117.684L15.1229 118.4C14.9538 117.883 14.6854 117.391 14.3175 116.923C13.9595 116.456 13.4723 116.073 12.8558 115.775C12.2393 115.477 11.4688 115.327 10.544 115.327C9.28125 115.327 8.22727 115.611 7.3821 116.178C6.53693 116.734 6.11435 117.455 6.11435 118.34C6.11435 119.106 6.39773 119.722 6.96449 120.19C7.53125 120.657 8.44602 121.04 9.70881 121.338L13.348 122.173C15.456 122.661 17.027 123.411 18.0611 124.425C19.0952 125.44 19.6122 126.757 19.6122 128.378C19.6122 129.75 19.2145 130.973 18.419 132.047C17.6335 133.111 16.5348 133.946 15.1229 134.553C13.7209 135.159 12.0952 135.462 10.2457 135.462C7.6804 135.462 5.58736 134.915 3.96662 133.822C2.34588 132.718 1.35156 131.152 0.983665 129.124L5.29403 128.467C5.5625 129.591 6.11435 130.441 6.94957 131.018C7.7848 131.585 8.87358 131.868 10.2159 131.868C11.6776 131.868 12.8459 131.565 13.7209 130.958C14.5959 130.342 15.0334 129.591 15.0334 128.706C15.0334 127.99 14.7649 127.388 14.228 126.901C13.701 126.414 12.8906 126.046 11.7969 125.798L7.91903 124.947C5.78125 124.46 4.20028 123.685 3.17614 122.621C2.16193 121.557 1.65483 120.21 1.65483 118.579C1.65483 117.227 2.03267 116.043 2.78835 115.029C3.54403 114.015 4.58807 113.224 5.92045 112.658C7.25284 112.081 8.77912 111.793 10.4993 111.793C12.9751 111.793 14.924 112.33 16.3459 113.403C17.7678 114.467 18.7074 115.894 19.1648 117.684ZM39.0275 125.499V112.091H43.502V135H39.117V131.033H38.8784C38.3514 132.256 37.5062 133.275 36.3429 134.09C35.1895 134.896 33.7527 135.298 32.0325 135.298C30.5609 135.298 29.2583 134.975 28.1248 134.329C27.0012 133.673 26.1163 132.703 25.47 131.42C24.8336 130.138 24.5154 128.552 24.5154 126.663V112.091H28.975V126.126C28.975 127.687 29.4075 128.93 30.2726 129.854C31.1376 130.779 32.2612 131.241 33.6433 131.241C34.4785 131.241 35.3088 131.033 36.1341 130.615C36.9693 130.197 37.6603 129.566 38.2072 128.721C38.764 127.876 39.0375 126.802 39.0275 125.499ZM56.1609 135.507C54.7092 135.507 53.3967 135.239 52.2234 134.702C51.0501 134.155 50.1204 133.364 49.4343 132.33C48.7582 131.296 48.4201 130.028 48.4201 128.527C48.4201 127.234 48.6687 126.17 49.1658 125.335C49.663 124.5 50.3342 123.839 51.1793 123.352C52.0245 122.864 52.9691 122.496 54.0131 122.248C55.0572 121.999 56.1211 121.81 57.2049 121.681C58.5771 121.522 59.6907 121.393 60.5458 121.293C61.4009 121.184 62.0224 121.01 62.4102 120.771C62.7979 120.533 62.9918 120.145 62.9918 119.608V119.504C62.9918 118.201 62.6239 117.192 61.8881 116.476C61.1623 115.76 60.0785 115.402 58.6367 115.402C57.1353 115.402 55.9521 115.735 55.087 116.401C54.2319 117.058 53.6403 117.788 53.3121 118.594L49.1211 117.639C49.6183 116.247 50.3441 115.124 51.2987 114.268C52.2631 113.403 53.3718 112.777 54.6246 112.389C55.8775 111.991 57.195 111.793 58.5771 111.793C59.4918 111.793 60.4613 111.902 61.4854 112.121C62.5195 112.33 63.484 112.717 64.3789 113.284C65.2837 113.851 66.0245 114.661 66.6012 115.715C67.1779 116.759 67.4663 118.116 67.4663 119.787V135H63.1112V131.868H62.9322C62.6438 132.445 62.2113 133.011 61.6346 133.568C61.0579 134.125 60.3171 134.587 59.4123 134.955C58.5075 135.323 57.4237 135.507 56.1609 135.507ZM57.1303 131.928C58.3633 131.928 59.4173 131.684 60.2923 131.197C61.1772 130.71 61.8484 130.073 62.3058 129.288C62.7731 128.492 63.0067 127.642 63.0067 126.737V123.784C62.8477 123.943 62.5394 124.092 62.082 124.232C61.6346 124.361 61.1225 124.475 60.5458 124.575C59.9691 124.664 59.4073 124.749 58.8604 124.828C58.3136 124.898 57.8562 124.957 57.4883 125.007C56.6232 125.116 55.8327 125.3 55.1168 125.559C54.4109 125.817 53.8441 126.19 53.4165 126.678C52.9989 127.155 52.7901 127.791 52.7901 128.587C52.7901 129.69 53.1978 130.526 54.0131 131.092C54.8285 131.649 55.8675 131.928 57.1303 131.928ZM104.119 112.091L95.8118 135H91.0391L82.7166 112.091H87.5043L93.3061 129.72H93.5447L99.3317 112.091H104.119ZM108.31 135V112.091H112.77V135H108.31ZM110.562 108.556C109.787 108.556 109.121 108.298 108.564 107.781C108.017 107.254 107.744 106.627 107.744 105.901C107.744 105.165 108.017 104.539 108.564 104.022C109.121 103.495 109.787 103.232 110.562 103.232C111.338 103.232 111.999 103.495 112.546 104.022C113.103 104.539 113.381 105.165 113.381 105.901C113.381 106.627 113.103 107.254 112.546 107.781C111.999 108.298 111.338 108.556 110.562 108.556ZM135.936 117.684L131.894 118.4C131.725 117.883 131.457 117.391 131.089 116.923C130.731 116.456 130.244 116.073 129.627 115.775C129.011 115.477 128.24 115.327 127.316 115.327C126.053 115.327 124.999 115.611 124.154 116.178C123.308 116.734 122.886 117.455 122.886 118.34C122.886 119.106 123.169 119.722 123.736 120.19C124.303 120.657 125.218 121.04 126.48 121.338L130.119 122.173C132.227 122.661 133.798 123.411 134.833 124.425C135.867 125.44 136.384 126.757 136.384 128.378C136.384 129.75 135.986 130.973 135.191 132.047C134.405 133.111 133.306 133.946 131.894 134.553C130.492 135.159 128.867 135.462 127.017 135.462C124.452 135.462 122.359 134.915 120.738 133.822C119.117 132.718 118.123 131.152 117.755 129.124L122.066 128.467C122.334 129.591 122.886 130.441 123.721 131.018C124.556 131.585 125.645 131.868 126.987 131.868C128.449 131.868 129.617 131.565 130.492 130.958C131.367 130.342 131.805 129.591 131.805 128.706C131.805 127.99 131.536 127.388 130.999 126.901C130.472 126.414 129.662 126.046 128.568 125.798L124.691 124.947C122.553 124.46 120.972 123.685 119.948 122.621C118.933 121.557 118.426 120.21 118.426 118.579C118.426 117.227 118.804 116.043 119.56 115.029C120.316 114.015 121.36 113.224 122.692 112.658C124.024 112.081 125.551 111.793 127.271 111.793C129.747 111.793 131.695 112.33 133.117 113.403C134.539 114.467 135.479 115.894 135.936 117.684ZM147.954 135.507C146.502 135.507 145.19 135.239 144.016 134.702C142.843 134.155 141.913 133.364 141.227 132.33C140.551 131.296 140.213 130.028 140.213 128.527C140.213 127.234 140.462 126.17 140.959 125.335C141.456 124.5 142.127 123.839 142.972 123.352C143.817 122.864 144.762 122.496 145.806 122.248C146.85 121.999 147.914 121.81 148.998 121.681C150.37 121.522 151.484 121.393 152.339 121.293C153.194 121.184 153.815 121.01 154.203 120.771C154.591 120.533 154.785 120.145 154.785 119.608V119.504C154.785 118.201 154.417 117.192 153.681 116.476C152.955 115.76 151.871 115.402 150.43 115.402C148.928 115.402 147.745 115.735 146.88 116.401C146.025 117.058 145.433 117.788 145.105 118.594L140.914 117.639C141.411 116.247 142.137 115.124 143.092 114.268C144.056 113.403 145.165 112.777 146.418 112.389C147.67 111.991 148.988 111.793 150.37 111.793C151.285 111.793 152.254 111.902 153.278 112.121C154.313 112.33 155.277 112.717 156.172 113.284C157.077 113.851 157.817 114.661 158.394 115.715C158.971 116.759 159.259 118.116 159.259 119.787V135H154.904V131.868H154.725C154.437 132.445 154.004 133.011 153.428 133.568C152.851 134.125 152.11 134.587 151.205 134.955C150.3 135.323 149.217 135.507 147.954 135.507ZM148.923 131.928C150.156 131.928 151.21 131.684 152.085 131.197C152.97 130.71 153.641 130.073 154.099 129.288C154.566 128.492 154.8 127.642 154.8 126.737V123.784C154.641 123.943 154.332 124.092 153.875 124.232C153.428 124.361 152.915 124.475 152.339 124.575C151.762 124.664 151.2 124.749 150.653 124.828C150.107 124.898 149.649 124.957 149.281 125.007C148.416 125.116 147.626 125.3 146.91 125.559C146.204 125.817 145.637 126.19 145.21 126.678C144.792 127.155 144.583 127.791 144.583 128.587C144.583 129.69 144.991 130.526 145.806 131.092C146.621 131.649 147.661 131.928 148.923 131.928ZM146.119 109.317L143.121 109.227C143.121 107.577 143.564 106.259 144.449 105.275C145.344 104.29 146.447 103.798 147.76 103.798C148.366 103.798 148.898 103.903 149.356 104.112C149.813 104.31 150.241 104.544 150.638 104.812C151.046 105.071 151.449 105.305 151.847 105.513C152.254 105.712 152.707 105.812 153.204 105.812C153.781 105.812 154.248 105.593 154.606 105.156C154.974 104.718 155.158 104.176 155.158 103.53L158.096 103.724C158.096 105.384 157.648 106.692 156.754 107.646C155.859 108.591 154.76 109.068 153.457 109.078C152.751 109.078 152.165 108.979 151.697 108.78C151.24 108.571 150.832 108.337 150.474 108.079C150.116 107.81 149.749 107.572 149.371 107.363C148.993 107.154 148.54 107.05 148.013 107.05C147.457 107.05 146.999 107.268 146.641 107.706C146.293 108.134 146.119 108.67 146.119 109.317ZM174.849 135.462C172.701 135.462 170.827 134.97 169.226 133.986C167.625 133.001 166.382 131.624 165.497 129.854C164.612 128.085 164.17 126.016 164.17 123.65C164.17 121.273 164.612 119.195 165.497 117.415C166.382 115.636 167.625 114.254 169.226 113.269C170.827 112.285 172.701 111.793 174.849 111.793C176.997 111.793 178.871 112.285 180.472 113.269C182.073 114.254 183.316 115.636 184.2 117.415C185.085 119.195 185.528 121.273 185.528 123.65C185.528 126.016 185.085 128.085 184.2 129.854C183.316 131.624 182.073 133.001 180.472 133.986C178.871 134.97 176.997 135.462 174.849 135.462ZM174.864 131.719C176.256 131.719 177.409 131.351 178.324 130.615C179.239 129.879 179.915 128.9 180.352 127.677C180.8 126.454 181.024 125.107 181.024 123.635C181.024 122.173 180.8 120.831 180.352 119.608C179.915 118.375 179.239 117.386 178.324 116.64C177.409 115.894 176.256 115.521 174.864 115.521C173.462 115.521 172.298 115.894 171.374 116.64C170.459 117.386 169.778 118.375 169.33 119.608C168.893 120.831 168.674 122.173 168.674 123.635C168.674 125.107 168.893 126.454 169.33 127.677C169.778 128.9 170.459 129.879 171.374 130.615C172.298 131.351 173.462 131.719 174.864 131.719ZM211.494 135.462C209.237 135.462 207.294 134.98 205.663 134.016C204.042 133.041 202.789 131.674 201.904 129.914C201.029 128.144 200.592 126.071 200.592 123.695C200.592 121.348 201.029 119.28 201.904 117.49C202.789 115.7 204.022 114.303 205.603 113.299C207.194 112.295 209.053 111.793 211.181 111.793C212.474 111.793 213.727 112.006 214.94 112.434C216.153 112.862 217.242 113.533 218.206 114.447C219.171 115.362 219.931 116.55 220.488 118.012C221.045 119.464 221.323 121.229 221.323 123.307V124.888H203.112V121.547H216.953C216.953 120.374 216.715 119.335 216.237 118.43C215.76 117.515 215.089 116.794 214.224 116.267C213.369 115.74 212.365 115.477 211.211 115.477C209.958 115.477 208.865 115.785 207.93 116.401C207.005 117.008 206.289 117.803 205.782 118.788C205.285 119.762 205.036 120.821 205.036 121.964V124.575C205.036 126.106 205.305 127.408 205.842 128.482C206.389 129.556 207.149 130.376 208.124 130.943C209.098 131.5 210.237 131.778 211.539 131.778C212.384 131.778 213.155 131.659 213.851 131.42C214.547 131.172 215.149 130.804 215.656 130.317C216.163 129.83 216.551 129.228 216.819 128.512L221.04 129.273C220.702 130.516 220.095 131.604 219.22 132.539C218.355 133.464 217.267 134.185 215.954 134.702C214.651 135.209 213.165 135.462 211.494 135.462ZM226.271 135V112.091H230.552V115.82H230.835C231.313 114.557 232.093 113.572 233.177 112.866C234.261 112.151 235.558 111.793 237.07 111.793C238.601 111.793 239.884 112.151 240.918 112.866C241.962 113.582 242.732 114.567 243.229 115.82H243.468C244.015 114.597 244.885 113.622 246.078 112.896C247.271 112.161 248.693 111.793 250.344 111.793C252.422 111.793 254.117 112.444 255.43 113.746C256.752 115.049 257.413 117.013 257.413 119.638V135H252.954V120.055C252.954 118.504 252.531 117.381 251.686 116.685C250.841 115.989 249.832 115.641 248.658 115.641C247.207 115.641 246.078 116.088 245.273 116.983C244.467 117.868 244.065 119.006 244.065 120.398V135H239.62V119.772C239.62 118.529 239.232 117.53 238.457 116.774C237.681 116.018 236.672 115.641 235.429 115.641C234.584 115.641 233.803 115.864 233.087 116.312C232.381 116.749 231.81 117.361 231.372 118.146C230.945 118.932 230.731 119.842 230.731 120.876V135H226.271ZM274.506 135V112.091H278.816V115.73H279.055C279.472 114.497 280.208 113.528 281.262 112.822C282.326 112.106 283.529 111.748 284.871 111.748C285.15 111.748 285.478 111.758 285.856 111.778C286.244 111.798 286.547 111.822 286.766 111.852V116.118C286.587 116.068 286.268 116.013 285.811 115.954C285.354 115.884 284.896 115.849 284.439 115.849C283.385 115.849 282.445 116.073 281.62 116.521C280.805 116.958 280.158 117.57 279.681 118.355C279.204 119.131 278.965 120.016 278.965 121.01V135H274.506ZM299.678 135.462C297.421 135.462 295.477 134.98 293.846 134.016C292.226 133.041 290.973 131.674 290.088 129.914C289.213 128.144 288.775 126.071 288.775 123.695C288.775 121.348 289.213 119.28 290.088 117.49C290.973 115.7 292.206 114.303 293.787 113.299C295.378 112.295 297.237 111.793 299.365 111.793C300.657 111.793 301.91 112.006 303.123 112.434C304.336 112.862 305.425 113.533 306.39 114.447C307.354 115.362 308.115 116.55 308.672 118.012C309.229 119.464 309.507 121.229 309.507 123.307V124.888H291.296V121.547H305.137C305.137 120.374 304.898 119.335 304.421 118.43C303.944 117.515 303.273 116.794 302.407 116.267C301.552 115.74 300.548 115.477 299.395 115.477C298.142 115.477 297.048 115.785 296.113 116.401C295.189 117.008 294.473 117.803 293.966 118.788C293.469 119.762 293.22 120.821 293.22 121.964V124.575C293.22 126.106 293.488 127.408 294.025 128.482C294.572 129.556 295.333 130.376 296.307 130.943C297.282 131.5 298.42 131.778 299.723 131.778C300.568 131.778 301.339 131.659 302.035 131.42C302.731 131.172 303.332 130.804 303.839 130.317C304.346 129.83 304.734 129.228 305.003 128.512L309.224 129.273C308.885 130.516 308.279 131.604 307.404 132.539C306.539 133.464 305.45 134.185 304.138 134.702C302.835 135.209 301.349 135.462 299.678 135.462ZM321.122 135.507C319.67 135.507 318.358 135.239 317.184 134.702C316.011 134.155 315.081 133.364 314.395 132.33C313.719 131.296 313.381 130.028 313.381 128.527C313.381 127.234 313.63 126.17 314.127 125.335C314.624 124.5 315.295 123.839 316.14 123.352C316.985 122.864 317.93 122.496 318.974 122.248C320.018 121.999 321.082 121.81 322.166 121.681C323.538 121.522 324.652 121.393 325.507 121.293C326.362 121.184 326.983 121.01 327.371 120.771C327.759 120.533 327.953 120.145 327.953 119.608V119.504C327.953 118.201 327.585 117.192 326.849 116.476C326.123 115.76 325.039 115.402 323.598 115.402C322.096 115.402 320.913 115.735 320.048 116.401C319.193 117.058 318.601 117.788 318.273 118.594L314.082 117.639C314.579 116.247 315.305 115.124 316.26 114.268C317.224 113.403 318.333 112.777 319.586 112.389C320.838 111.991 322.156 111.793 323.538 111.793C324.453 111.793 325.422 111.902 326.446 112.121C327.48 112.33 328.445 112.717 329.34 113.284C330.245 113.851 330.985 114.661 331.562 115.715C332.139 116.759 332.427 118.116 332.427 119.787V135H328.072V131.868H327.893C327.605 132.445 327.172 133.011 326.596 133.568C326.019 134.125 325.278 134.587 324.373 134.955C323.468 135.323 322.385 135.507 321.122 135.507ZM322.091 131.928C323.324 131.928 324.378 131.684 325.253 131.197C326.138 130.71 326.809 130.073 327.267 129.288C327.734 128.492 327.968 127.642 327.968 126.737V123.784C327.809 123.943 327.5 124.092 327.043 124.232C326.596 124.361 326.083 124.475 325.507 124.575C324.93 124.664 324.368 124.749 323.821 124.828C323.275 124.898 322.817 124.957 322.449 125.007C321.584 125.116 320.794 125.3 320.078 125.559C319.372 125.817 318.805 126.19 318.377 126.678C317.96 127.155 317.751 127.791 317.751 128.587C317.751 129.69 318.159 130.526 318.974 131.092C319.789 131.649 320.828 131.928 322.091 131.928ZM342.827 104.455V135H338.367V104.455H342.827ZM348.826 135V112.091H353.286V135H348.826ZM351.078 108.556C350.303 108.556 349.636 108.298 349.08 107.781C348.533 107.254 348.259 106.627 348.259 105.901C348.259 105.165 348.533 104.539 349.08 104.022C349.636 103.495 350.303 103.232 351.078 103.232C351.854 103.232 352.515 103.495 353.062 104.022C353.619 104.539 353.897 105.165 353.897 105.901C353.897 106.627 353.619 107.254 353.062 107.781C352.515 108.298 351.854 108.556 351.078 108.556ZM367.861 135.447C366.012 135.447 364.361 134.975 362.909 134.031C361.468 133.076 360.334 131.719 359.509 129.959C358.693 128.189 358.286 126.066 358.286 123.59C358.286 121.114 358.698 118.996 359.524 117.237C360.359 115.477 361.502 114.129 362.954 113.195C364.406 112.26 366.051 111.793 367.891 111.793C369.313 111.793 370.456 112.031 371.321 112.509C372.196 112.976 372.872 113.523 373.35 114.149C373.837 114.776 374.215 115.327 374.483 115.805H374.752V104.455H379.211V135H374.856V131.435H374.483C374.215 131.923 373.827 132.479 373.32 133.106C372.823 133.732 372.137 134.279 371.262 134.746C370.387 135.214 369.253 135.447 367.861 135.447ZM368.845 131.644C370.128 131.644 371.212 131.306 372.097 130.63C372.992 129.944 373.668 128.994 374.125 127.781C374.593 126.568 374.826 125.156 374.826 123.545C374.826 121.955 374.597 120.562 374.14 119.369C373.683 118.176 373.012 117.246 372.127 116.58C371.242 115.914 370.148 115.581 368.845 115.581C367.503 115.581 366.384 115.929 365.49 116.625C364.595 117.321 363.919 118.271 363.461 119.474C363.014 120.677 362.79 122.034 362.79 123.545C362.79 125.077 363.019 126.454 363.476 127.677C363.933 128.9 364.61 129.869 365.504 130.585C366.409 131.291 367.523 131.644 368.845 131.644ZM392.243 135.507C390.791 135.507 389.479 135.239 388.305 134.702C387.132 134.155 386.202 133.364 385.516 132.33C384.84 131.296 384.502 130.028 384.502 128.527C384.502 127.234 384.751 126.17 385.248 125.335C385.745 124.5 386.416 123.839 387.261 123.352C388.107 122.864 389.051 122.496 390.095 122.248C391.139 121.999 392.203 121.81 393.287 121.681C394.659 121.522 395.773 121.393 396.628 121.293C397.483 121.184 398.104 121.01 398.492 120.771C398.88 120.533 399.074 120.145 399.074 119.608V119.504C399.074 118.201 398.706 117.192 397.97 116.476C397.244 115.76 396.161 115.402 394.719 115.402C393.217 115.402 392.034 115.735 391.169 116.401C390.314 117.058 389.722 117.788 389.394 118.594L385.203 117.639C385.7 116.247 386.426 115.124 387.381 114.268C388.345 113.403 389.454 112.777 390.707 112.389C391.96 111.991 393.277 111.793 394.659 111.793C395.574 111.793 396.543 111.902 397.567 112.121C398.602 112.33 399.566 112.717 400.461 113.284C401.366 113.851 402.107 114.661 402.683 115.715C403.26 116.759 403.548 118.116 403.548 119.787V135H399.193V131.868H399.014C398.726 132.445 398.293 133.011 397.717 133.568C397.14 134.125 396.399 134.587 395.494 134.955C394.589 135.323 393.506 135.507 392.243 135.507ZM393.212 131.928C394.445 131.928 395.499 131.684 396.374 131.197C397.259 130.71 397.93 130.073 398.388 129.288C398.855 128.492 399.089 127.642 399.089 126.737V123.784C398.93 123.943 398.621 124.092 398.164 124.232C397.717 124.361 397.205 124.475 396.628 124.575C396.051 124.664 395.489 124.749 394.942 124.828C394.396 124.898 393.938 124.957 393.57 125.007C392.705 125.116 391.915 125.3 391.199 125.559C390.493 125.817 389.926 126.19 389.499 126.678C389.081 127.155 388.872 127.791 388.872 128.587C388.872 129.69 389.28 130.526 390.095 131.092C390.911 131.649 391.95 131.928 393.212 131.928ZM418.064 135.447C416.215 135.447 414.564 134.975 413.112 134.031C411.671 133.076 410.537 131.719 409.712 129.959C408.896 128.189 408.489 126.066 408.489 123.59C408.489 121.114 408.901 118.996 409.727 117.237C410.562 115.477 411.705 114.129 413.157 113.195C414.609 112.26 416.254 111.793 418.094 111.793C419.516 111.793 420.659 112.031 421.524 112.509C422.399 112.976 423.075 113.523 423.553 114.149C424.04 114.776 424.418 115.327 424.686 115.805H424.955V104.455H429.414V135H425.059V131.435H424.686C424.418 131.923 424.03 132.479 423.523 133.106C423.026 133.732 422.34 134.279 421.465 134.746C420.59 135.214 419.456 135.447 418.064 135.447ZM419.048 131.644C420.331 131.644 421.415 131.306 422.3 130.63C423.195 129.944 423.871 128.994 424.328 127.781C424.796 126.568 425.029 125.156 425.029 123.545C425.029 121.955 424.801 120.562 424.343 119.369C423.886 118.176 423.215 117.246 422.33 116.58C421.445 115.914 420.351 115.581 419.048 115.581C417.706 115.581 416.588 115.929 415.693 116.625C414.798 117.321 414.122 118.271 413.664 119.474C413.217 120.677 412.993 122.034 412.993 123.545C412.993 125.077 413.222 126.454 413.679 127.677C414.137 128.9 414.813 129.869 415.708 130.585C416.612 131.291 417.726 131.644 419.048 131.644ZM445.653 135.462C443.396 135.462 441.452 134.98 439.821 134.016C438.2 133.041 436.947 131.674 436.062 129.914C435.188 128.144 434.75 126.071 434.75 123.695C434.75 121.348 435.188 119.28 436.062 117.49C436.947 115.7 438.18 114.303 439.761 113.299C441.352 112.295 443.212 111.793 445.339 111.793C446.632 111.793 447.885 112.006 449.098 112.434C450.311 112.862 451.4 113.533 452.364 114.447C453.329 115.362 454.089 116.55 454.646 118.012C455.203 119.464 455.482 121.229 455.482 123.307V124.888H437.271V121.547H451.112C451.112 120.374 450.873 119.335 450.396 118.43C449.918 117.515 449.247 116.794 448.382 116.267C447.527 115.74 446.523 115.477 445.369 115.477C444.116 115.477 443.023 115.785 442.088 116.401C441.163 117.008 440.447 117.803 439.94 118.788C439.443 119.762 439.195 120.821 439.195 121.964V124.575C439.195 126.106 439.463 127.408 440 128.482C440.547 129.556 441.308 130.376 442.282 130.943C443.256 131.5 444.395 131.778 445.697 131.778C446.543 131.778 447.313 131.659 448.009 131.42C448.705 131.172 449.307 130.804 449.814 130.317C450.321 129.83 450.709 129.228 450.977 128.512L455.198 129.273C454.86 130.516 454.254 131.604 453.379 132.539C452.513 133.464 451.425 134.185 450.112 134.702C448.81 135.209 447.323 135.462 445.653 135.462ZM465.307 126.215V125.932C465.327 124.082 465.51 122.611 465.858 121.517C466.216 120.423 466.724 119.538 467.38 118.862C468.036 118.186 468.827 117.57 469.751 117.013C470.348 116.635 470.885 116.212 471.362 115.745C471.839 115.278 472.217 114.741 472.496 114.134C472.774 113.528 472.913 112.857 472.913 112.121C472.913 111.236 472.704 110.47 472.287 109.824C471.869 109.178 471.312 108.68 470.616 108.332C469.93 107.974 469.165 107.795 468.319 107.795C467.554 107.795 466.823 107.955 466.127 108.273C465.431 108.591 464.854 109.088 464.397 109.764C463.939 110.43 463.676 111.29 463.606 112.344H459.072C459.142 110.555 459.594 109.043 460.43 107.81C461.265 106.567 462.368 105.628 463.741 104.991C465.123 104.355 466.649 104.037 468.319 104.037C470.149 104.037 471.75 104.38 473.122 105.066C474.494 105.742 475.558 106.692 476.314 107.915C477.079 109.128 477.462 110.545 477.462 112.165C477.462 113.279 477.288 114.283 476.94 115.178C476.592 116.063 476.095 116.854 475.449 117.55C474.812 118.246 474.047 118.862 473.152 119.399C472.307 119.926 471.621 120.473 471.094 121.04C470.577 121.607 470.199 122.278 469.96 123.053C469.721 123.829 469.592 124.788 469.572 125.932V126.215H465.307ZM467.559 135.283C466.743 135.283 466.042 134.995 465.456 134.418C464.869 133.832 464.576 133.126 464.576 132.3C464.576 131.485 464.869 130.789 465.456 130.212C466.042 129.626 466.743 129.332 467.559 129.332C468.364 129.332 469.06 129.626 469.647 130.212C470.243 130.789 470.542 131.485 470.542 132.3C470.542 132.847 470.403 133.349 470.124 133.807C469.856 134.254 469.498 134.612 469.05 134.881C468.603 135.149 468.106 135.283 467.559 135.283Z" fill="white"/>
</svg>
