<svg width="34" height="34" viewBox="0 0 34 34" fill="none" xmlns="http://www.w3.org/2000/svg">
<g clip-path="url(#clip0_324_1829)">
<path d="M16.58 0C7.42 0 0 7.42 0 16.58C0 25.74 7.42 33.16 16.58 33.16C25.74 33.16 33.16 25.74 33.16 16.58C33.16 7.42 25.74 0 16.58 0ZM9.17 9.12H23.99C24.19 9.12 24.39 9.15 24.58 9.2C24.55 9.22 24.53 9.24 24.5 9.27L17.88 16.78C17.55 17.16 17.09 17.37 16.58 17.37C16.07 17.37 15.61 17.16 15.28 16.78L8.59 9.19C8.77 9.14 8.97 9.11 9.17 9.11V9.12ZM26.28 20.02C26.28 22.24 24.48 24.05 22.25 24.05H10.91C8.69 24.05 6.88 22.25 6.88 20.02V11.41C6.88 11.09 6.95 10.79 7.06 10.51L13.76 18.12C14.47 18.93 15.49 19.39 16.57 19.39C17.64 19.39 18.67 18.93 19.38 18.12L26 10.61C26 10.61 26.05 10.54 26.08 10.5C26.2 10.78 26.27 11.09 26.27 11.41V20.02H26.28Z" fill="white"/>
</g>
<defs>
<clipPath id="clip0_324_1829">
<rect width="33.16" height="33.16" fill="white"/>
</clipPath>
</defs>
</svg>
