<svg width="34" height="34" viewBox="0 0 34 34" fill="none" xmlns="http://www.w3.org/2000/svg">
<g clip-path="url(#clip0_324_1836)">
<path d="M16.58 0C7.42 0 0 7.42 0 16.58C0 25.74 7.42 33.16 16.58 33.16C25.74 33.16 33.16 25.74 33.16 16.58C33.16 7.42 25.74 0 16.58 0ZM16.69 8.03C17.89 8.03 19.58 10.88 19.83 15.43H13.55C13.8 10.88 15.49 8.03 16.69 8.03ZM13.74 7.34C12.35 9.03 11.41 11.94 11.24 15.43H7.06C7.51 11.61 10.18 8.48 13.74 7.34ZM7.06 17.73H11.24C11.41 21.22 12.35 24.13 13.74 25.82C10.18 24.68 7.51 21.55 7.06 17.73ZM16.69 25.13C15.49 25.13 13.8 22.28 13.55 17.73H19.83C19.58 22.28 17.89 25.13 16.69 25.13ZM19.64 25.82C21.03 24.13 21.97 21.22 22.14 17.73H26.32C25.87 21.55 23.2 24.68 19.64 25.82ZM22.14 15.43C21.97 11.94 21.03 9.03 19.64 7.34C23.2 8.48 25.87 11.61 26.32 15.43H22.14Z" fill="white"/>
</g>
<defs>
<clipPath id="clip0_324_1836">
<rect width="33.16" height="33.16" fill="white"/>
</clipPath>
</defs>
</svg>
