<svg width="34" height="34" viewBox="0 0 34 34" fill="none" xmlns="http://www.w3.org/2000/svg">
<g clip-path="url(#clip0_324_1841)">
<path d="M17.66 22.2002H15.57C14.93 22.2002 14.42 22.7102 14.42 23.3502C14.42 23.9902 14.93 24.5002 15.57 24.5002H17.66C18.3 24.5002 18.81 23.9902 18.81 23.3502C18.81 22.7102 18.3 22.2002 17.66 22.2002Z" fill="white"/>
<path d="M16.58 0C7.42 0 0 7.42 0 16.58C0 25.74 7.42 33.16 16.58 33.16C25.74 33.16 33.16 25.74 33.16 16.58C33.16 7.42 25.74 0 16.58 0ZM23.26 20.8V23.99C23.26 25.31 22.19 26.39 20.86 26.39H12.36C11.04 26.39 9.96 25.32 9.96 23.99V9.17C9.96 7.85 11.03 6.77 12.36 6.77H20.86C22.18 6.77 23.26 7.84 23.26 9.17V20.8Z" fill="white"/>
</g>
<defs>
<clipPath id="clip0_324_1841">
<rect width="33.16" height="33.16" fill="white"/>
</clipPath>
</defs>
</svg>
