<svg width="1637" height="1255" viewBox="0 0 1637 1255" fill="none" xmlns="http://www.w3.org/2000/svg">
<path fill-rule="evenodd" clip-rule="evenodd" d="M538.739 2.70755H865.641V781.881L768.169 987.667C715.034 1100.94 673.863 1200.51 662.251 1223.73L679.141 1245.87L660.491 1240.24C654.509 1238.13 637.267 1227.93 622.839 1218.08C608.412 1208.23 591.522 1193.45 575.335 1169.88L571.816 1007.01L0 1005.26L0.351887 772.383L248.784 416.391C385.668 220.806 506.717 47.7343 517.977 31.9046L538.739 2.70755ZM313.531 749.87C313.531 750.925 376.871 751.629 454.286 751.629H595.04C595.04 422.019 594.337 325.985 593.633 325.985C592.929 325.985 529.589 420.964 452.878 537.048C376.167 653.133 313.531 749.166 313.531 749.87Z" fill="#062A76"/>
<path d="M1225.97 15.3713C1228.44 11.5018 1235.83 6.57705 1242.51 3.76288C1251.66 0.245163 1294.94 -0.45838 1437.81 0.245163C1616.22 0.948706 1621.85 1.30048 1628.88 7.98413C1633.11 11.8536 1636.63 18.889 1636.27 23.8138C1636.27 28.7386 1571.88 156.783 1492.7 308.749C1413.88 460.714 1274.18 729.467 1182.34 906.408C1090.5 1083 1010.97 1232.5 1005.34 1237.78C999.006 1244.81 989.857 1249.03 977.189 1251.5C965.929 1253.96 908.22 1255.01 825.174 1254.31C697.44 1253.25 690.754 1252.9 679.141 1245.87C672.456 1242 664.714 1234.96 662.251 1230.04C657.676 1222.3 664.362 1207.52 756.556 1012.29C811.099 897.262 859.307 794.193 863.882 783.64C868.105 773.087 925.462 650.319 991.265 511.017C1057.42 371.716 1132.72 211.66 1159.47 155.728C1186.21 99.7965 1210.84 46.679 1214.71 37.8847C1218.58 29.0904 1223.51 18.889 1225.97 15.3713Z" fill="#0199F4"/>
</svg>
