<svg width="366" height="281" viewBox="0 0 366 281" fill="none" xmlns="http://www.w3.org/2000/svg">
<path fill-rule="evenodd" clip-rule="evenodd" d="M120.248 0.604381H193.214V174.532L171.458 220.468C159.598 245.752 150.408 267.979 147.816 273.161L151.586 278.103L147.424 276.847C146.088 276.376 142.24 274.098 139.02 271.9C135.799 269.701 132.029 266.403 128.416 261.142L127.631 224.786L0 224.394L0.0785422 172.412L55.5293 92.9469C86.0822 49.2884 113.101 10.6553 115.614 7.12175L120.248 0.604381ZM69.9811 167.386C69.9811 167.622 84.1187 167.779 101.398 167.779H132.815C132.815 94.2033 132.658 72.7666 132.501 72.7666C132.344 72.7666 118.206 93.9677 101.084 119.88C83.9616 145.793 69.9811 167.229 69.9811 167.386Z" fill="white"/>
<path d="M273.641 3.4312C274.191 2.56745 275.84 1.46813 277.332 0.839951C279.375 0.0547253 289.035 -0.10232 320.923 0.0547254C360.744 0.211771 362.001 0.290293 363.572 1.78222C364.514 2.64597 365.3 4.21642 365.221 5.31574C365.221 6.41505 350.848 34.9973 333.176 68.919C315.582 102.841 284.401 162.832 263.902 202.329C243.402 241.747 225.652 275.119 224.395 276.297C222.981 277.868 220.939 278.81 218.112 279.359C215.598 279.909 202.717 280.145 184.181 279.988C155.671 279.752 154.178 279.674 151.586 278.103C150.094 277.239 148.366 275.669 147.816 274.57C146.795 272.842 148.288 269.544 168.866 225.964C181.04 200.287 191.8 177.28 192.821 174.924C193.764 172.569 206.566 145.164 221.253 114.069C236.019 82.9745 252.827 47.2468 258.796 34.7617C264.766 22.2766 270.264 10.4197 271.128 8.45664C271.992 6.49357 273.091 4.21642 273.641 3.4312Z" fill="white"/>
</svg>
